<?xml version="1.0" encoding="UTF-8" standalone="no"?>
<svg
   xmlns:dc="http://purl.org/dc/elements/1.1/"
   xmlns:cc="http://creativecommons.org/ns#"
   xmlns:rdf="http://www.w3.org/1999/02/22-rdf-syntax-ns#"
   xmlns:svg="http://www.w3.org/2000/svg"
   xmlns="http://www.w3.org/2000/svg"
   xmlns:sodipodi="http://sodipodi.sourceforge.net/DTD/sodipodi-0.dtd"
   xmlns:inkscape="http://www.inkscape.org/namespaces/inkscape"
   version="1.0"
   width="556.96582pt"
   height="603.53436pt"
   viewBox="0 0 556.96582 603.53436"
   preserveAspectRatio="xMidYMid meet"
   id="svg154"
   sodipodi:docname="logoCartoon 15.44.35.svg"
   inkscape:version="1.0.1 (c497b03c, 2020-09-10)">
  <defs
     id="defs158" />
  <sodipodi:namedview
     pagecolor="#ffffff"
     bordercolor="#666666"
     borderopacity="1"
     objecttolerance="10"
     gridtolerance="10"
     guidetolerance="10"
     inkscape:pageopacity="0"
     inkscape:pageshadow="2"
     inkscape:window-width="1262"
     inkscape:window-height="1260"
     id="namedview156"
     showgrid="false"
     fit-margin-top="0"
     fit-margin-left="0"
     fit-margin-right="0"
     fit-margin-bottom="0"
     inkscape:zoom="0.46399484"
     inkscape:cx="773.73866"
     inkscape:cy="-252.01158"
     inkscape:window-x="2453"
     inkscape:window-y="227"
     inkscape:window-maximized="0"
     inkscape:current-layer="svg154"
     inkscape:document-rotation="0" />
  <metadata
     id="metadata10">
Created by potrace 1.11, written by Peter Selinger 2001-2013
<rdf:RDF>
  <cc:Work
     rdf:about="">
    <dc:format>image/svg+xml</dc:format>
    <dc:type
       rdf:resource="http://purl.org/dc/dcmitype/StillImage" />
    <dc:title />
  </cc:Work>
</rdf:RDF>
</metadata>
  <g
     transform="matrix(0.1,0,0,-0.1,-24.267897,604.33807)"
     fill="#000000"
     stroke="none"
     id="g152">
    <path
       d="m 2699,6033 c -28,-4 -38,-24 -40,-78 -1,-24 -14,-42 -74,-92 -72,-61 -73,-62 -111,-51 -22,5 -46,16 -54,23 -8,7 -41,15 -72,17 l -58,5 v -35 c 0,-27 -10,-46 -42,-82 -60,-66 -83,-101 -85,-129 -2,-23 -2,-23 19,-5 12,11 18,13 14,7 -9,-16 6,-17 22,-1 6,6 14,9 17,6 10,-9 -25,-38 -46,-38 -11,0 -22,-6 -25,-14 -3,-8 -14,-11 -28,-9 -17,4 -34,-6 -64,-36 -22,-23 -44,-41 -49,-41 -18,0 -80,-66 -108,-113 -24,-42 -28,-59 -27,-116 1,-38 6,-79 11,-92 8,-22 10,-22 16,-6 6,15 10,16 16,5 7,-11 9,-11 9,0 0,19 79,110 102,118 24,7 44,-9 53,-43 6,-27 74,-135 87,-141 5,-2 8,-10 8,-17 0,-8 9,-17 20,-20 11,-3 20,-10 20,-15 0,-4 8,-11 17,-14 14,-6 13,-3 -4,16 -29,32 -63,103 -62,130 0,19 2,18 12,-9 7,-17 16,-35 21,-40 5,-4 6,-3 3,4 -9,15 2,45 14,37 5,-3 7,-10 4,-15 -4,-5 0,-9 8,-9 8,0 22,-9 32,-20 23,-25 35,-17 35,25 0,18 6,35 12,37 10,4 10,10 1,30 -10,23 -9,25 12,22 15,-1 34,7 49,22 29,30 70,39 107,24 26,-11 26,-13 22,-78 l -4,-67 15,39 c 8,21 19,43 24,48 12,12 83,15 100,4 7,-4 12,-1 12,7 0,8 7,18 16,21 22,8 26,8 19,-4 -3,-5 -1,-10 5,-10 6,0 13,6 16,13 3,8 21,14 44,14 40,1 46,-6 40,-47 -1,-12 1,-13 12,-2 7,7 13,18 13,25 0,7 19,18 43,25 44,14 56,32 22,32 -11,0 -20,5 -20,11 0,5 -4,7 -10,4 -5,-3 -10,-1 -10,5 0,6 -4,8 -10,5 -5,-3 -10,-1 -10,4 0,11 1,12 37,16 12,1 28,5 36,8 9,3 21,0 27,-8 8,-10 7,-14 -7,-18 -10,-3 -4,-5 12,-4 17,0 37,-3 45,-7 16,-8 -4,9 -37,32 -16,11 -13,12 20,7 35,-6 92,-45 65,-45 -6,0 -9,-3 -6,-6 4,-3 16,0 28,6 15,8 20,8 16,1 -4,-6 -2,-11 3,-11 6,0 11,-10 11,-21 0,-19 4,-21 35,-16 21,3 33,2 30,-4 -4,-5 -13,-9 -21,-9 -18,0 -18,2 5,-42 10,-21 22,-34 26,-30 4,4 5,-2 3,-12 -1,-10 3,-21 10,-23 8,-3 12,9 12,44 1,50 17,83 41,83 9,-1 7,-6 -6,-16 -16,-12 -21,-29 -23,-82 -4,-93 -5,-101 -13,-96 -4,2 -10,-4 -14,-15 -8,-26 -40,-61 -55,-61 -7,0 -11,-2 -8,-5 3,-3 27,-1 52,6 47,12 73,6 46,-11 -13,-8 -12,-10 3,-10 10,0 17,-8 17,-20 0,-11 5,-20 10,-20 6,0 10,-7 10,-15 0,-8 5,-15 11,-15 5,0 7,6 3,13 -4,6 -3,8 1,4 5,-4 10,-15 11,-25 2,-9 8,-18 13,-20 6,-2 11,-12 11,-23 0,-10 5,-18 12,-16 6,1 18,-11 26,-28 8,-16 18,-32 22,-35 4,-3 10,-16 13,-30 3,-14 12,-47 19,-75 8,-27 13,-63 12,-80 -5,-69 -32,-145 -51,-145 -7,0 -17,-9 -23,-20 -6,-11 -15,-18 -21,-15 -5,4 -9,1 -9,-4 0,-6 5,-11 10,-11 6,0 10,-10 10,-22 0,-19 2,-20 18,-6 14,12 21,12 39,3 13,-6 20,-15 15,-20 -4,-4 2,-5 13,-2 19,7 19,6 3,-7 -10,-7 -18,-24 -18,-37 0,-13 -5,-42 -11,-64 -11,-37 -12,-38 -20,-17 -5,13 -13,21 -18,17 -6,-3 -9,3 -8,14 0,11 6,17 14,14 7,-3 13,2 13,11 0,9 5,16 10,16 6,0 10,11 10,25 0,17 -5,25 -17,25 -15,0 -16,-2 -3,-10 13,-8 12,-10 -2,-10 -10,0 -18,-8 -18,-17 0,-15 -2,-16 -10,-3 -7,12 -10,12 -10,1 0,-8 -6,-11 -16,-7 -11,4 -18,-1 -21,-15 -3,-12 -11,-18 -19,-15 -8,3 -14,1 -14,-4 0,-6 5,-10 10,-10 6,0 10,-4 10,-10 0,-5 -8,-10 -17,-10 -14,0 -15,-2 -5,-9 8,-5 13,-22 11,-42 -2,-19 1,-40 5,-48 7,-10 4,-11 -12,-2 -15,8 -23,8 -28,0 -8,-13 13,-28 41,-30 11,0 14,-3 8,-6 -16,-6 -17,-33 -2,-33 7,0 10,-12 7,-30 -6,-38 10,-35 31,6 9,17 22,29 29,26 7,-2 10,2 6,12 -3,9 -1,16 5,16 6,0 11,9 11,21 0,12 4,18 11,13 6,-3 16,0 21,7 7,10 8,8 3,-8 -3,-13 -1,-24 7,-29 7,-4 10,-4 7,0 -4,4 -4,19 0,34 6,22 13,27 39,27 18,0 32,-4 32,-10 0,-5 7,-2 14,8 14,18 46,23 46,7 0,-25 51,9 62,40 6,20 48,-7 48,-31 0,-24 29,-59 31,-37 1,7 5,2 9,-12 l 8,-25 1,28 c 1,15 -3,27 -9,27 -5,0 -10,7 -10,16 0,8 5,12 10,9 11,-7 14,55 4,91 -4,15 -11,20 -25,17 -10,-3 -19,0 -19,6 0,6 5,11 11,11 6,0 17,7 26,16 11,11 19,12 26,5 8,-8 16,-6 29,6 10,9 18,13 18,8 0,-4 9,4 21,19 11,15 18,33 15,41 -3,8 -1,17 4,20 6,4 10,-2 10,-11 0,-22 15,-8 25,24 4,16 3,22 -6,20 -7,-2 -15,5 -17,16 -3,13 0,16 9,11 9,-6 11,-2 7,13 -4,12 -2,24 2,27 4,3 13,27 20,55 7,27 16,50 21,50 5,0 9,14 9,30 0,17 -4,30 -10,30 -6,0 -6,9 0,26 13,32 12,35 -1,32 -6,-2 -14,4 -16,12 -4,13 -3,13 6,0 15,-22 25,11 18,65 -2,25 -1,42 4,39 5,-3 9,0 9,7 0,6 9,1 19,-12 18,-22 20,-22 26,-6 11,27 -1,44 -34,49 -24,3 -32,0 -37,-14 -12,-39 -23,-4 -18,60 5,61 3,70 -18,93 -13,13 -22,32 -20,42 2,10 -3,17 -11,17 -22,0 -47,34 -47,64 0,19 -6,29 -18,33 -14,3 -18,11 -14,29 3,18 -1,26 -22,34 -16,6 -26,17 -26,29 0,11 -4,22 -9,25 -5,4 -19,27 -31,52 -22,45 -23,45 -66,41 -27,-3 -42,-1 -38,5 3,5 13,7 21,3 14,-5 14,-3 0,17 -9,14 -24,22 -36,21 -12,-2 -24,4 -27,12 -4,8 -12,15 -19,15 -7,0 -18,7 -25,15 -7,8 -25,15 -40,15 -14,0 -30,3 -34,8 -4,4 -15,7 -24,8 -46,3 -52,5 -52,19 0,16 -26,32 -50,31 -8,-1 -23,8 -33,19 -16,17 -18,17 -13,3 7,-23 2,-23 -29,5 -61,53 -85,80 -79,88 9,16 76,-33 86,-63 4,-10 8,-9 21,3 18,19 13,29 -15,29 -10,0 -28,11 -40,25 -18,20 -31,25 -71,25 -41,0 -48,-2 -38,-14 9,-11 9,-15 -1,-19 -7,-2 2,-4 21,-3 21,1 36,-4 39,-13 3,-10 0,-12 -12,-8 -9,4 -16,1 -16,-6 0,-8 -3,-8 -9,2 -6,9 -11,10 -15,3 -4,-6 -14,-9 -24,-6 -11,4 -9,-1 7,-14 13,-10 19,-22 14,-25 -15,-9 -54,4 -46,16 3,5 1,7 -4,4 -6,-4 -31,2 -54,13 -24,11 -55,20 -68,20 -14,0 -34,9 -46,20 -11,11 -31,21 -43,23 -12,2 -28,9 -35,16 -9,10 -8,11 6,6 10,-4 17,-2 17,4 0,6 -9,11 -19,11 -10,0 -22,7 -25,16 -9,24 -8,26 14,19 17,-5 21,0 27,37 l 6,43 13,-30 c 7,-16 13,-23 14,-15 0,13 1,13 10,0 5,-8 10,-11 10,-5 0,5 7,-1 16,-13 8,-12 12,-27 8,-34 -4,-6 -3,-8 3,-5 6,4 28,-9 49,-28 41,-38 93,-70 100,-62 3,2 -11,12 -31,21 -19,9 -35,21 -35,26 0,15 13,12 40,-7 32,-22 56,-27 40,-8 -8,10 -7,14 2,18 7,3 -3,6 -23,6 -21,1 -48,10 -63,22 -14,11 -26,17 -27,12 -5,-36 -35,158 -38,243 -1,16 -9,23 -31,28 -56,11 -85,14 -111,9 z m 41,-24 c 0,-6 -4,-7 -10,-4 -5,3 -10,11 -10,16 0,6 5,7 10,4 6,-3 10,-11 10,-16 z m 61,-41 c 0,-10 2,-10 6,0 2,6 9,10 14,6 12,-7 12,-54 -1,-54 -5,0 -10,5 -10,11 0,7 -10,9 -25,7 -14,-3 -28,-1 -32,5 -3,6 -1,7 5,3 11,-6 16,6 13,27 0,4 6,7 14,7 8,0 15,-6 16,-12 z m -21,-78 c 0,-5 -4,-10 -10,-10 -5,0 -10,5 -10,10 0,6 5,10 10,10 6,0 10,-4 10,-10 z m -465,-100 c 3,-5 1,-10 -4,-10 -6,0 -11,5 -11,10 0,6 2,10 4,10 3,0 8,-4 11,-10 z m 139,-41 c 15,-16 24,-29 18,-29 -6,0 -17,8 -24,18 -16,24 -68,35 -68,16 0,-8 -4,-14 -10,-14 -5,0 -10,10 -10,23 0,21 4,23 33,19 17,-2 45,-17 61,-33 z m 51,1 c 3,-5 2,-10 -4,-10 -5,0 -13,5 -16,10 -3,6 -2,10 4,10 5,0 13,-4 16,-10 z m 275,-70 c 0,-5 -4,-10 -10,-10 -5,0 -10,5 -10,10 0,6 5,10 10,10 6,0 10,-4 10,-10 z m -100,-10 c 0,-5 -4,-10 -10,-10 -5,0 -10,5 -10,10 0,6 5,10 10,10 6,0 10,-4 10,-10 z m -30,-10 c 0,-5 -2,-10 -4,-10 -3,0 -8,5 -11,10 -3,6 -1,10 4,10 6,0 11,-4 11,-10 z m 127,-29 c 17,-11 40,-21 50,-23 24,-4 42,-21 36,-32 -3,-5 0,-6 8,-4 8,3 22,-1 31,-9 15,-13 18,-12 27,6 9,16 8,22 -6,30 -13,7 -15,13 -7,21 8,8 18,5 36,-9 14,-11 29,-17 33,-13 4,4 3,-3 -3,-15 -9,-16 -9,-22 3,-26 9,-4 12,-1 9,7 -3,7 1,16 9,19 9,3 14,-1 13,-11 -1,-12 11,-20 39,-27 22,-6 49,-15 59,-22 16,-9 8,-10 -42,-8 -34,1 -62,-1 -62,-6 0,-5 17,-24 38,-44 36,-34 37,-34 11,-35 -23,0 -77,29 -54,30 5,0 -2,8 -15,17 -14,10 -38,16 -58,14 -23,-2 -32,1 -28,8 4,6 2,11 -5,11 -7,0 -9,3 -6,6 4,4 13,1 22,-6 9,-7 18,-10 22,-6 3,3 1,6 -6,6 -7,0 -10,4 -7,9 4,5 -32,27 -78,49 -46,23 -88,47 -93,55 -4,8 -17,17 -28,20 l -20,5 20,1 c 11,0 34,-8 52,-18 z m 120,9 c 8,0 13,-6 10,-12 -2,-7 -13,-12 -23,-10 -13,1 -10,-3 9,-13 25,-15 37,-35 19,-35 -8,0 -46,41 -47,50 0,3 -4,11 -9,19 -7,11 -5,13 8,8 10,-4 24,-7 33,-7 z m -237,-44 c 0,-3 -7,-6 -15,-6 -9,0 -15,9 -15,21 0,18 2,19 15,5 8,-8 15,-17 15,-20 z m 85,5 c -3,-5 6,-11 20,-13 14,-2 24,-7 23,-12 -4,-12 -44,-14 -61,-4 -6,4 -17,2 -24,-4 -10,-8 -13,-6 -13,5 0,12 25,28 58,36 2,1 1,-3 -3,-8 z m -470,-41 c -10,-11 -21,-18 -23,-15 -3,3 3,12 14,20 27,20 30,18 9,-5 z m 373,-24 c -7,-8 -17,-12 -22,-9 -4,3 -2,9 5,14 22,13 31,11 17,-5 z m 227,-6 c 3,-6 -1,-7 -9,-4 -18,7 -21,14 -7,14 6,0 13,-4 16,-10 z m -94,-16 c 12,-15 11,-16 -8,-10 -12,4 -37,0 -57,-8 -20,-8 -36,-11 -36,-5 0,5 6,11 13,13 13,4 71,23 73,25 1,1 8,-6 15,-15 z m 59,6 c 8,-5 11,-10 5,-10 -5,0 -17,5 -25,10 -8,5 -10,10 -5,10 6,0 17,-5 25,-10 z m -178,-25 c -6,-36 -19,-40 -14,-4 2,16 8,29 12,29 4,0 5,-11 2,-25 z m 645,0 c 40,-17 55,-19 33,-5 -8,5 -12,11 -9,14 8,8 99,-24 99,-35 0,-12 -27,-11 -35,1 -3,6 -14,10 -23,9 -14,0 -14,-2 2,-8 16,-6 12,-10 -22,-18 -33,-9 -42,-8 -42,2 0,16 -77,25 -105,13 -14,-6 -12,-1 8,16 33,30 45,31 94,11 z m -360,-35 c 14,-11 33,-20 41,-20 8,0 13,-3 9,-6 -7,-8 -78,17 -95,34 -23,21 16,15 45,-8 z m -406,-23 c -10,-9 -11,-8 -5,6 3,10 9,15 12,12 3,-3 0,-11 -7,-18 z m 129,-8 c 0,-5 -4,-7 -10,-4 -5,3 -10,1 -10,-4 0,-6 -9,-11 -20,-11 -17,0 -19,2 -8,15 15,17 48,20 48,4 z m 340,-19 c 21,-7 19,-8 -17,-9 -24,-1 -43,4 -43,9 0,12 24,12 60,0 z m -323,-35 c -23,-22 -33,-18 -12,5 10,11 20,18 23,16 2,-3 -3,-12 -11,-21 z m 268,16 c 13,-1 16,-4 8,-12 -6,-6 -25,-8 -47,-4 -42,8 -50,28 -8,21 15,-2 36,-5 47,-5 z m -185,-15 c 0,-2 -7,-7 -16,-10 -8,-3 -12,-2 -9,4 6,10 25,14 25,6 z m 675,-6 c 3,-5 -1,-10 -9,-10 -8,0 -18,5 -21,10 -3,6 1,10 9,10 8,0 18,-4 21,-10 z m -610,-10 c -3,-5 -16,-10 -28,-10 -18,0 -19,2 -7,10 20,13 43,13 35,0 z m 52,4 c -3,-3 -12,-4 -19,-1 -8,3 -5,6 6,6 11,1 17,-2 13,-5 z m -917,-54 c -38,-36 -40,-36 -40,-10 0,14 11,26 33,35 44,18 46,11 7,-25 z m 1426,-25 c 4,-9 13,-13 24,-10 9,3 24,3 33,-1 13,-4 14,-9 4,-19 -6,-7 -17,-10 -24,-8 -6,3 -20,0 -31,-6 -16,-8 -21,-7 -26,4 -3,8 -1,15 4,15 6,0 10,5 10,10 0,6 -10,10 -22,10 -19,0 -20,2 -8,10 21,14 30,12 36,-5 z m 234,-24 c 0,-13 -27,-21 -46,-14 -13,5 -13,7 -2,14 17,11 48,11 48,0 z m -240,-35 c 8,0 19,-7 23,-14 5,-7 13,-10 19,-6 11,7 -7,-29 -26,-54 -29,-37 -71,-71 -76,-62 -9,15 -70,-77 -70,-105 0,-13 -4,-26 -9,-30 -5,-3 -9,18 -7,50 1,30 -2,55 -6,55 -5,0 -8,5 -8,12 0,6 3,8 7,5 3,-4 12,-2 20,4 10,9 13,8 13,-5 0,-10 5,-14 11,-10 8,4 8,9 0,17 -13,13 -15,84 -2,91 5,3 11,-1 14,-8 3,-8 1,-17 -6,-19 -7,-2 -9,-7 -6,-11 9,-10 39,5 39,19 0,8 -6,20 -14,28 -9,9 -11,19 -5,28 7,12 9,11 9,-2 0,-9 8,-23 17,-30 15,-12 16,-12 10,4 -3,9 -2,17 2,17 5,0 12,7 15,16 5,12 2,15 -9,10 -10,-3 -13,-2 -10,5 4,6 14,7 24,4 9,-4 23,-8 31,-9 z m 185,5 c -6,-5 -21,-11 -35,-15 -21,-5 -20,-3 5,9 35,17 42,18 30,6 z m 105,-22 c 0,-12 -38,2 -44,17 -4,11 0,11 19,2 14,-6 25,-15 25,-19 z m -1512,-4 c -3,-3 -9,2 -12,12 -6,14 -5,15 5,6 7,-7 10,-15 7,-18 z m 1102,-10 c 17,10 -18,-68 -40,-88 l -22,-22 6,34 c 3,18 6,44 6,57 0,15 6,24 15,24 8,0 16,6 16,13 1,6 3,4 6,-6 2,-9 8,-15 13,-12 z m 307,9 c -3,-3 -12,-4 -19,-1 -8,3 -5,6 6,6 11,1 17,-2 13,-5 z m -117,-53 c 0,-5 -11,-16 -25,-25 -38,-25 -30,-41 9,-18 24,14 33,16 30,7 -8,-20 -72,-56 -79,-44 -10,15 5,53 29,71 23,19 36,23 36,9 z m 110,-51 c 0,-11 -7,-20 -15,-20 -18,0 -19,12 -3,28 16,16 18,15 18,-8 z m 124,-6 c 14,-5 14,-9 0,-35 -8,-16 -19,-29 -24,-29 -14,0 -12,18 3,23 6,2 9,7 5,11 -3,4 -18,0 -32,-10 -36,-23 -45,-10 -16,21 24,26 37,29 64,19 z m -307,-51 c 1,-10 5,-29 9,-43 7,-23 7,-24 -9,-8 -17,17 -23,49 -10,61 9,9 9,9 10,-10 z m 52,-50 c -22,-44 -24,-46 -27,-22 -2,16 6,36 20,52 32,36 34,26 7,-30 z m 126,-2 c -8,-17 -20,-31 -25,-31 -6,0 -10,-4 -10,-9 0,-6 9,-8 20,-6 13,2 20,-2 20,-11 0,-8 -4,-14 -9,-14 -5,0 -11,-11 -13,-25 -4,-20 -3,-23 8,-14 7,6 16,19 19,28 7,22 49,46 65,36 8,-5 9,-10 1,-18 -6,-6 -11,-21 -11,-33 0,-13 -4,-26 -10,-29 -5,-3 -10,-11 -10,-17 0,-7 5,-6 15,2 9,7 25,10 41,6 19,-5 24,-4 18,5 -5,8 -2,10 8,6 9,-3 21,0 27,6 14,14 14,5 -1,-28 -10,-23 -16,-26 -52,-22 -23,3 -48,7 -57,11 -11,5 -18,-2 -26,-29 -12,-37 -4,-45 21,-20 21,22 39,19 31,-5 -3,-11 -3,-20 0,-20 8,0 49,21 55,29 13,16 50,31 50,20 0,-8 4,-8 15,1 8,6 18,9 23,6 17,-10 6,-76 -18,-108 -17,-24 -19,-30 -7,-25 22,8 21,-2 -2,-31 -12,-13 -25,-20 -35,-16 -14,6 -14,10 5,40 11,19 19,40 17,48 -3,13 -7,13 -35,-1 -18,-8 -33,-20 -33,-25 0,-5 5,-6 10,-3 13,8 13,-46 0,-79 -7,-19 -6,-26 2,-26 7,0 2,-7 -10,-16 -12,-8 -22,-20 -22,-26 0,-7 7,-5 18,4 34,29 39,28 37,-5 -1,-22 -6,-31 -16,-29 -7,2 -23,4 -34,5 -11,0 -28,6 -39,13 -14,9 -24,10 -42,2 -17,-8 -30,-8 -46,0 -19,9 -20,11 -5,11 10,1 15,6 12,11 -3,6 0,10 9,10 8,0 16,-5 18,-11 4,-12 38,-1 38,12 0,4 -6,6 -14,3 -8,-3 -22,-1 -31,4 -16,8 -16,9 -1,15 12,5 15,3 10,-6 -4,-6 -3,-9 1,-4 15,13 12,57 -3,57 -12,0 -12,3 -1,17 12,14 12,16 0,8 -11,-6 -13,-4 -7,10 3,10 4,26 0,37 -5,15 -8,17 -20,7 -12,-10 -13,-8 -6,12 5,13 8,33 6,44 -2,11 4,27 12,36 10,12 12,19 5,24 -6,3 -19,-7 -29,-24 -21,-37 -35,-41 -22,-5 14,35 13,38 -7,19 -15,-16 -18,-15 -35,7 -9,12 -15,29 -13,36 3,8 5,26 5,40 0,15 9,38 20,52 17,21 21,23 30,10 9,-14 14,-7 11,13 -1,4 6,10 14,13 8,4 15,13 15,21 0,8 4,12 9,8 5,-3 13,0 17,7 16,25 15,-11 -1,-41 z m 120,19 c -3,-5 -2,-10 4,-10 6,0 8,-6 5,-13 -7,-19 -39,-36 -53,-28 -16,10 -3,41 23,51 28,12 28,12 21,0 z m 135,-361 c 0,-5 -5,-9 -11,-9 -7,0 -17,-7 -23,-15 -8,-10 -15,-12 -26,-5 -13,9 -12,13 8,30 22,18 52,18 52,-1 z m 0,-54 c 0,-5 -4,-4 -9,4 -7,11 -11,10 -20,-5 -6,-11 -11,-16 -11,-11 0,4 5,16 12,27 9,14 14,16 20,7 4,-7 8,-16 8,-22 z m -63,-21 c -3,-3 -12,-4 -19,-1 -8,3 -5,6 6,6 11,1 17,-2 13,-5 z m 44,-31 c -10,-17 -10,-16 -11,3 0,23 13,41 18,25 2,-6 -1,-18 -7,-28 z m -231,-33 c 0,-5 -5,-10 -11,-10 -5,0 -7,5 -4,10 3,6 8,10 11,10 2,0 4,-4 4,-10 z m 200,-5 c 0,-8 -4,-15 -10,-15 -5,0 -10,7 -10,15 0,8 5,15 10,15 6,0 10,-7 10,-15 z m -120,-5 c 0,-5 -9,-10 -21,-10 -11,0 -17,5 -14,10 3,6 13,10 21,10 8,0 14,-4 14,-10 z m 80,-4 c 0,-3 -4,-8 -10,-11 -5,-3 -10,-1 -10,4 0,6 5,11 10,11 6,0 10,-2 10,-4 z m -193,-18 c -2,-7 0,-24 5,-37 7,-20 6,-22 -5,-13 -8,7 -17,9 -21,5 -4,-4 -5,0 -2,10 4,9 8,24 11,32 2,8 7,15 11,15 3,0 4,-6 1,-12 z m 143,-8 c 0,-5 -5,-10 -11,-10 -5,0 -7,5 -4,10 3,6 8,10 11,10 2,0 4,-4 4,-10 z m -183,-13 c -4,-14 -47,-23 -47,-9 0,13 7,17 30,19 13,1 20,-3 17,-10 z m 259,-22 c 1,-18 -3,-25 -16,-25 -10,0 -21,7 -24,16 -4,10 -2,13 7,8 8,-5 7,-2 -2,9 -12,15 -11,17 10,17 19,0 24,-6 25,-25 z m -129,-21 c -3,-3 -12,-4 -19,-1 -8,3 -5,6 6,6 11,1 17,-2 13,-5 z m 123,-24 c 0,-5 -5,-10 -11,-10 -5,0 -7,5 -4,10 3,6 8,10 11,10 2,0 4,-4 4,-10 z m -90,-54 c 0,-2 -9,-6 -20,-9 -11,-3 -20,-1 -20,4 0,5 9,9 20,9 11,0 20,-2 20,-4 z m -200,-101 c 0,-8 -2,-15 -4,-15 -2,0 -6,7 -10,15 -3,8 -1,15 4,15 6,0 10,-7 10,-15 z m -107,-55 c -7,-25 -19,-34 -28,-20 -6,10 14,39 27,40 3,0 4,-9 1,-20 z"
       id="path12" />
    <path
       d="m 3350,5170 c -19,-20 -27,-36 -23,-50 7,-28 15,-25 38,12 44,73 37,91 -15,38 z"
       id="path14" />
    <path
       d="m 3477,4867 c -3,-8 -1,-20 4,-28 6,-10 9,-7 9,14 0,29 -5,35 -13,14 z"
       id="path16" />
    <path
       d="m 3670,4745 c -7,-9 -11,-17 -9,-20 3,-2 10,5 17,15 14,24 10,26 -8,5 z"
       id="path18" />
    <path
       d="m 3760,4735 c -7,-9 -11,-17 -9,-20 3,-2 10,5 17,15 14,24 10,26 -8,5 z"
       id="path20" />
    <path
       d="m 3625,4683 c -10,-21 -20,-41 -22,-45 -2,-5 -2,-8 1,-8 8,0 48,81 43,86 -2,3 -12,-12 -22,-33 z"
       id="path22" />
    <path
       d="m 3635,4600 c -10,-11 -13,-20 -8,-20 13,0 38,29 31,35 -3,3 -13,-4 -23,-15 z"
       id="path24" />
    <path
       d="m 2760,5786 c 0,-2 8,-10 18,-17 15,-13 16,-12 3,4 -13,16 -21,21 -21,13 z"
       id="path26" />
    <path
       d="m 2827,5714 c 5,-13 50,-31 57,-23 2,2 -11,12 -30,21 -27,14 -32,14 -27,2 z"
       id="path28" />
    <path
       d="m 3205,5630 c -6,-10 1,-14 19,-11 20,4 116,-52 116,-67 0,-12 3,-13 12,-4 8,8 5,16 -13,31 -13,11 -31,20 -40,21 -9,0 -24,9 -34,20 -19,21 -50,26 -60,10 z"
       id="path30" />
    <path
       d="m 3380,5553 c 0,-5 14,-16 30,-25 36,-20 40,-7 5,16 -27,18 -35,20 -35,9 z"
       id="path32" />
    <path
       d="m 3480,5496 c 0,-2 8,-10 18,-17 15,-13 16,-12 3,4 -13,16 -21,21 -21,13 z"
       id="path34" />
    <path
       d="m 2710,5190 c -6,-21 -15,-42 -20,-45 -6,-4 -6,4 0,21 6,15 9,29 6,31 -2,2 -12,-17 -22,-42 -9,-25 -32,-65 -50,-88 -37,-46 -38,-61 -2,-27 13,12 34,28 48,35 14,7 36,26 50,42 l 25,28 -25,-21 c -44,-37 -51,-36 -29,3 12,21 28,47 35,58 16,23 18,45 4,45 -5,0 -14,-18 -20,-40 z"
       id="path36" />
    <path
       d="m 2624,5163 c -10,-26 -21,-52 -23,-57 -2,-5 1,-6 7,-2 11,6 45,97 38,103 -2,2 -12,-18 -22,-44 z"
       id="path38" />
    <path
       d="m 2759,5163 c -13,-17 -13,-17 6,-3 11,8 22,16 24,17 2,2 0,3 -6,3 -6,0 -17,-8 -24,-17 z"
       id="path40" />
    <path
       d="m 2586,5073 c -6,-14 -5,-15 5,-6 7,7 10,15 7,18 -3,3 -9,-2 -12,-12 z"
       id="path42" />
    <path
       d="m 2565,5039 c -4,-6 -5,-12 -2,-15 2,-3 7,2 10,11 7,17 1,20 -8,4 z"
       id="path44" />
    <path
       d="m 3881,4814 c 0,-11 3,-14 6,-6 3,7 2,16 -1,19 -3,4 -6,-2 -5,-13 z"
       id="path46" />
    <path
       d="m 3911,4814 c 0,-11 3,-14 6,-6 3,7 2,16 -1,19 -3,4 -6,-2 -5,-13 z"
       id="path48" />
    <path
       d="m 1825,4750 c -11,-4 -30,-11 -43,-15 -13,-4 -21,-13 -18,-21 3,-7 1,-14 -3,-16 -4,-2 -11,-15 -14,-30 -6,-21 -3,-28 12,-33 21,-6 51,3 51,16 0,17 57,9 84,-12 14,-11 26,-24 26,-29 0,-5 -29,-12 -64,-15 -61,-7 -65,-9 -75,-38 -18,-50 -14,-77 10,-77 12,0 28,-8 35,-17 11,-15 15,-15 23,-4 9,15 71,7 71,-10 0,-5 11,-8 25,-7 14,1 25,6 25,10 0,12 35,9 48,-4 9,-9 12,-9 13,3 1,7 1,18 0,23 -1,4 9,6 22,2 19,-4 26,-1 30,13 3,15 1,18 -11,14 -9,-4 -13,-2 -9,4 4,5 -2,27 -13,47 -10,21 -16,44 -14,51 3,7 1,16 -5,20 -6,3 -11,17 -11,31 0,26 -55,88 -69,79 -5,-2 -14,2 -21,10 -13,16 -70,19 -105,5 z m 165,-180 c 0,-5 -2,-10 -4,-10 -3,0 -8,5 -11,10 -3,6 -1,10 4,10 6,0 11,-4 11,-10 z m -32,-63 c 28,-13 30,-37 2,-30 -16,4 -19,2 -14,-11 8,-20 5,-20 -34,0 -36,18 -36,18 -20,43 12,19 23,19 66,-2 z"
       id="path50" />
    <path
       d="m 2329,4657 c -14,-13 -28,-31 -32,-40 -3,-9 -11,-17 -17,-17 -23,0 -7,-20 30,-36 l 40,-18 -28,-18 c -40,-26 -20,-22 32,7 24,13 57,24 72,25 16,0 53,3 83,6 31,4 62,2 75,-5 27,-13 136,-21 136,-10 0,5 -8,9 -19,9 -21,0 -73,25 -66,31 2,3 -14,17 -37,32 -23,15 -38,27 -33,28 35,2 -102,28 -150,28 -48,0 -65,-4 -86,-22 z"
       id="path52" />
    <path
       d="m 3352,4560 c 0,-14 2,-19 5,-12 2,6 2,18 0,25 -3,6 -5,1 -5,-13 z"
       id="path54" />
    <path
       d="m 2683,4523 c 9,-2 23,-2 30,0 6,3 -1,5 -18,5 -16,0 -22,-2 -12,-5 z"
       id="path56" />
    <path
       d="m 2402,4495 c -32,-26 -43,-65 -20,-65 9,0 9,-3 0,-12 -20,-20 -14,-25 36,-30 27,-3 62,-12 79,-20 27,-14 30,-14 29,1 0,9 -5,19 -11,23 -6,4 -2,8 8,8 9,0 17,4 17,10 0,15 63,3 72,-15 5,-8 13,-13 17,-10 5,2 14,-2 21,-10 7,-8 20,-15 30,-15 9,0 20,-3 24,-7 11,-11 89,-33 96,-27 2,3 -4,10 -14,16 -14,8 -15,12 -6,18 9,6 7,11 -8,19 -11,6 -26,17 -34,23 -24,23 -118,70 -131,65 -8,-4 -7,-6 3,-7 16,-1 60,-34 60,-44 0,-4 -10,0 -22,8 -13,7 -34,16 -48,19 -14,4 -34,13 -45,22 -20,16 -20,16 3,10 12,-4 22,-2 22,3 0,8 -25,16 -90,28 -8,1 -24,5 -36,9 -14,5 -30,-2 -52,-20 z"
       id="path58" />
    <path
       d="m 3335,4509 c -4,-6 -5,-12 -2,-15 2,-3 7,2 10,11 7,17 1,20 -8,4 z"
       id="path60" />
    <path
       d="m 2266,4495 c 4,-8 12,-15 20,-15 20,0 17,7 -6,20 -16,9 -18,8 -14,-5 z"
       id="path62" />
    <path
       d="m 3862,4490 c 0,-14 2,-19 5,-12 2,6 2,18 0,25 -3,6 -5,1 -5,-13 z"
       id="path64" />
    <path
       d="m 1907,4412 c -37,-15 -50,-32 -23,-32 27,0 116,23 116,31 0,14 -56,14 -93,1 z"
       id="path66" />
    <path
       d="m 3802,4360 c -14,-23 -16,-80 -3,-80 14,0 18,9 26,58 7,45 -2,55 -23,22 z"
       id="path68" />
    <path
       d="m 3290,4356 c 0,-2 7,-9 15,-16 9,-7 15,-8 15,-2 0,5 -7,12 -15,16 -8,3 -15,4 -15,2 z"
       id="path70" />
    <path
       d="m 1611,4317 c -13,-21 -12,-21 5,-5 10,10 16,20 13,22 -3,3 -11,-5 -18,-17 z"
       id="path72" />
    <path
       d="m 2402,4328 c 3,-7 15,-14 29,-16 24,-4 24,-3 4,12 -24,19 -38,20 -33,4 z"
       id="path74" />
    <path
       d="m 3730,4300 c 0,-23 15,-27 23,-6 3,8 -1,17 -9,20 -9,4 -14,-1 -14,-14 z"
       id="path76" />
    <path
       d="m 3840,4291 c 0,-11 -3,-28 -6,-38 -5,-12 -4,-15 4,-8 16,15 26,65 13,65 -6,0 -11,-9 -11,-19 z"
       id="path78" />
    <path
       d="m 2442,4296 c 3,-4 23,-12 43,-16 22,-5 34,-5 28,1 -10,10 -81,25 -71,15 z"
       id="path80" />
    <path
       d="m 1569,4248 c -16,-29 -29,-99 -18,-92 5,3 9,13 9,22 1,9 7,34 14,55 15,42 13,48 -5,15 z"
       id="path82" />
    <path
       d="m 3783,4255 c -3,-9 -3,-18 -1,-21 3,-3 8,4 11,16 6,23 -1,27 -10,5 z"
       id="path84" />
    <path
       d="m 3761,4237 c -1,-10 -5,-15 -11,-12 -5,3 -10,-1 -10,-9 0,-9 5,-16 10,-16 14,0 23,25 17,42 -3,8 -6,6 -6,-5 z"
       id="path86" />
    <path
       d="m 3791,4174 c 0,-11 3,-14 6,-6 3,7 2,16 -1,19 -3,4 -6,-2 -5,-13 z"
       id="path88" />
    <path
       d="m 3456,4118 c -8,-13 -18,-35 -21,-50 -4,-17 -12,-25 -20,-21 -15,5 -15,-32 -1,-55 13,-21 27,-13 20,12 -5,22 -3,24 18,19 22,-5 22,-5 4,9 -10,8 -16,21 -13,29 4,10 6,9 6,-3 1,-10 6,-18 12,-18 6,0 8,9 4,21 -7,20 -5,21 23,16 25,-5 32,-3 37,14 5,14 1,25 -12,34 -26,20 -40,18 -57,-7 z"
       id="path90" />
    <path
       d="m 1800,4091 c 0,-6 -5,-11 -10,-11 -23,0 -78,-63 -85,-96 -3,-20 -9,-43 -12,-51 -5,-13 -1,-15 20,-9 15,3 27,2 27,-3 0,-5 -9,-11 -21,-14 -19,-5 -20,-10 -13,-64 3,-32 15,-70 26,-85 24,-35 36,-98 18,-98 -7,0 -10,-8 -7,-20 4,-14 -1,-24 -15,-31 -18,-9 -20,-9 -15,4 3,9 0,21 -8,27 -8,6 -17,25 -20,41 -4,16 -11,29 -16,29 -5,0 -9,6 -9,13 0,8 -7,28 -16,45 -8,18 -13,41 -9,51 4,12 -1,24 -12,33 -10,7 -20,22 -21,33 -5,29 -12,32 -12,6 0,-17 -4,-21 -15,-17 -16,6 -19,-5 -15,-56 2,-39 -9,-68 -26,-68 -9,0 -14,-11 -14,-30 0,-19 -5,-29 -12,-28 -7,2 -12,-3 -10,-11 1,-7 -4,-24 -12,-37 -15,-21 -14,-23 3,-21 11,1 17,5 15,9 -3,4 2,8 11,8 13,0 15,-7 9,-35 -4,-22 -2,-35 4,-35 8,0 8,-9 0,-31 -7,-19 -15,-28 -24,-25 -8,3 -15,0 -15,-7 -4,-32 -8,-55 -17,-84 -6,-17 -8,-34 -4,-37 3,-3 -1,-6 -9,-6 -10,-1 -9,-3 3,-11 22,-13 13,-36 -18,-43 -14,-4 -22,-11 -19,-16 4,-6 11,-8 16,-5 5,4 9,-1 9,-9 0,-9 -4,-16 -10,-16 -5,0 -10,-7 -10,-15 0,-8 -3,-14 -7,-14 -25,4 -33,-4 -33,-31 0,-17 -5,-30 -12,-31 -7,0 -3,-5 10,-11 12,-6 22,-15 22,-20 0,-5 -4,-6 -10,-3 -23,14 -29,-8 -8,-25 20,-17 20,-19 6,-20 -21,0 -24,-16 -5,-23 6,-3 2,-6 -9,-6 -25,-1 -37,20 -27,47 6,15 5,16 -13,2 -10,-8 -23,-19 -27,-25 -5,-5 -5,1 -1,15 6,21 5,22 -7,10 -15,-16 -29,-44 -49,-98 -10,-25 -10,-36 -1,-45 7,-7 11,-56 11,-138 0,-100 -3,-129 -15,-139 -8,-7 -15,-21 -15,-32 0,-11 -18,-40 -40,-65 -22,-25 -40,-49 -40,-53 0,-4 -20,-37 -44,-72 -61,-93 -170,-313 -186,-378 -7,-30 -23,-67 -36,-83 -13,-15 -25,-47 -29,-75 -4,-26 -10,-56 -15,-67 -5,-11 -10,-46 -13,-78 -2,-37 -9,-62 -20,-70 -18,-14 -25,-46 -14,-64 4,-6 3,-14 -3,-18 -5,-3 -10,-30 -10,-60 0,-51 -23,-130 -56,-193 -8,-15 -14,-35 -14,-44 0,-9 -5,-20 -10,-23 -13,-8 -13,-91 1,-116 8,-17 7,-23 -8,-35 -16,-12 -14,-12 14,-3 33,11 121,7 142,-5 6,-4 8,-12 5,-18 -5,-7 -2,-8 6,-3 7,4 15,3 19,-3 14,-23 56,-24 81,-1 68,60 204,82 372,60 146,-20 319,-50 368,-66 25,-8 63,-17 85,-21 22,-4 46,-12 54,-18 8,-6 24,-9 37,-8 31,4 31,-6 -1,-18 -18,-7 -23,-14 -18,-26 4,-11 3,-15 -5,-10 -6,3 -13,-2 -17,-14 -10,-31 -127,-132 -148,-126 -20,5 -52,-46 -43,-70 3,-8 1,-14 -4,-14 -6,0 -10,-15 -10,-32 0,-25 -3,-29 -10,-18 -8,13 -10,12 -10,-2 0,-10 5,-18 11,-18 13,0 3,-48 -14,-68 -6,-8 -10,-36 -8,-63 2,-41 0,-48 -13,-43 -9,3 -16,1 -16,-5 0,-6 6,-11 14,-11 15,0 10,-46 -6,-56 -6,-4 -8,2 -3,15 5,15 2,21 -9,21 -9,0 -16,-7 -16,-15 0,-17 4,-16 -78,-19 -48,-1 -66,3 -73,14 -8,13 -10,13 -20,0 -8,-12 -9,-9 -5,12 3,15 2,30 -4,33 -6,4 -10,-6 -10,-24 0,-32 -20,-45 -20,-13 -1,16 -2,16 -15,-1 -13,-18 -14,-17 -18,5 -4,21 -4,21 -6,-3 -2,-42 -51,-54 -69,-17 -10,22 -11,21 -11,-9 -1,-32 -2,-33 -44,-33 -40,0 -67,13 -67,32 0,4 16,8 35,8 19,0 35,4 35,9 0,13 -53,21 -67,9 -7,-5 -21,-7 -33,-3 -13,4 -20,2 -20,-7 -1,-16 -50,42 -50,60 0,6 -5,12 -11,12 -5,0 -7,5 -4,11 4,6 -2,17 -14,25 -12,8 -21,20 -21,25 0,5 -9,19 -20,31 -14,15 -20,36 -20,67 0,25 -7,58 -14,73 -9,16 -13,44 -10,65 2,21 2,33 -2,26 -4,-9 -10,-9 -23,-1 -14,9 -23,5 -46,-18 -16,-16 -23,-30 -17,-32 23,-7 12,-19 -13,-14 -18,3 -25,0 -25,-11 0,-16 -54,-37 -94,-37 -19,0 -19,1 -1,20 11,12 45,37 76,55 72,44 136,125 99,125 -5,0 -10,-5 -10,-11 0,-6 -6,-9 -14,-6 -7,3 -19,0 -25,-6 -8,-8 -11,-8 -11,1 0,7 -4,12 -10,12 -5,0 -10,-6 -10,-13 0,-7 -18,-37 -40,-66 -22,-30 -44,-60 -49,-69 -7,-13 -12,-13 -40,1 -17,8 -31,11 -31,6 0,-5 -4,-9 -10,-9 -5,0 -10,8 -10,17 0,9 -3,13 -7,10 -3,-4 -13,-2 -20,5 -11,9 -16,9 -22,0 -4,-7 -18,-12 -32,-11 -30,1 -102,-25 -92,-34 3,-4 -7,-7 -24,-7 -17,0 -36,-7 -43,-15 -7,-8 -19,-15 -26,-15 -9,0 -14,-12 -14,-34 0,-19 -7,-39 -16,-47 -9,-8 -27,-31 -40,-51 -20,-31 -24,-51 -24,-117 0,-44 4,-83 10,-86 6,-4 10,-74 10,-179 0,-97 4,-176 10,-182 5,-5 13,-27 18,-49 l 8,-40 2620,-3 2621,-2 7,76 c 3,43 6,123 6,179 0,79 3,105 15,115 8,7 15,21 15,31 0,26 17,55 67,112 34,39 43,57 43,86 0,21 2,40 5,43 3,3 7,49 10,103 4,93 6,100 35,130 28,29 30,35 30,111 0,68 3,84 20,99 21,19 27,55 9,55 -5,0 -8,3 -6,8 3,4 0,18 -6,32 -6,14 -12,75 -12,136 0,86 -4,116 -15,130 -25,30 -42,90 -35,126 4,21 1,44 -9,63 -9,17 -16,38 -16,47 0,11 -7,16 -20,15 -26,-2 -25,-12 4,-92 20,-56 22,-71 13,-103 -14,-45 -32,-66 -52,-58 -11,4 -15,-2 -15,-26 0,-27 -2,-30 -12,-16 -7,9 -26,19 -41,22 -15,4 -30,14 -33,24 -3,9 -11,31 -19,47 -7,17 -17,41 -20,55 -4,14 -14,36 -23,50 -9,14 -17,27 -17,30 -3,19 -57,119 -74,138 -12,12 -20,22 -17,22 3,0 -8,15 -25,32 -16,18 -29,36 -29,39 0,8 -62,71 -98,99 -18,15 -21,20 -8,20 22,0 20,9 -10,36 -23,22 -23,24 -5,24 11,0 23,5 26,10 4,6 -10,10 -34,10 -22,0 -43,5 -47,12 -4,7 -3,8 4,4 7,-4 20,-3 29,3 15,8 16,10 3,15 -43,14 -44,14 -23,15 21,1 21,2 -5,31 -15,17 -32,30 -38,30 -6,0 -19,11 -28,25 -9,14 -12,25 -6,25 5,0 10,7 10,15 0,13 3,13 20,3 14,-9 23,-10 28,-2 4,6 16,14 27,19 18,7 18,9 3,12 -16,4 -23,16 -15,27 1,1 -13,15 -30,30 -24,20 -39,26 -55,21 -14,-4 -18,-3 -11,2 8,6 -8,13 -45,22 -40,9 -57,10 -60,2 -2,-6 -17,-11 -34,-11 -22,0 -29,-4 -25,-15 4,-8 2,-17 -3,-20 -13,-8 -47,11 -40,22 3,4 -7,9 -23,11 -31,4 -27,22 6,22 16,0 18,3 9,12 -17,17 -15,28 7,28 32,0 51,11 51,30 0,29 11,50 27,50 8,0 12,4 9,9 -3,5 0,11 8,14 23,9 11,62 -25,106 -22,27 -48,45 -74,53 -38,11 -55,24 -55,41 0,12 55,8 100,-8 55,-19 60,-19 60,5 0,24 13,26 30,5 7,-8 17,-15 22,-15 6,0 4,7 -3,17 -13,15 -12,15 8,3 12,-8 20,-17 17,-21 -4,-6 21,-21 39,-23 5,-1 14,-8 20,-16 7,-8 18,-15 25,-16 29,-2 33,-5 27,-14 -3,-5 1,-10 9,-10 9,0 15,-4 13,-9 -1,-4 9,-17 22,-28 21,-17 22,-22 12,-44 -11,-21 -10,-22 2,-7 10,13 16,15 25,6 7,-7 12,-17 12,-22 0,-6 -4,-5 -9,2 -6,10 -10,10 -21,-3 -11,-13 -10,-15 2,-10 8,3 24,-2 34,-12 11,-10 15,-15 9,-11 -8,5 -12,-2 -12,-23 0,-16 4,-25 8,-18 11,18 70,-46 62,-68 -4,-10 -2,-14 4,-10 6,4 18,-11 28,-35 12,-32 19,-39 26,-27 7,11 9,9 9,-8 0,-13 11,-29 24,-38 12,-8 32,-32 42,-53 10,-20 25,-43 32,-50 6,-7 12,-20 12,-27 0,-8 13,-29 28,-47 16,-18 34,-42 41,-53 11,-19 11,-18 5,4 -3,14 -19,42 -35,64 -33,45 -35,59 -15,77 8,6 12,18 9,26 -3,8 0,20 6,28 9,11 7,15 -9,19 -12,3 -20,13 -20,25 0,12 -4,24 -10,27 -15,9 -12,71 4,84 8,7 16,31 19,54 3,23 8,54 12,69 4,15 2,65 -5,111 -11,77 -15,88 -52,128 -22,24 -59,68 -80,96 -22,29 -44,51 -48,48 -4,-3 -10,2 -13,9 -3,8 -1,17 6,20 7,3 1,3 -13,0 -22,-4 -29,1 -48,35 -30,52 -108,121 -139,121 -13,0 -31,4 -41,9 -41,21 -93,31 -158,31 -38,0 -76,4 -84,9 -8,6 -18,7 -23,4 -5,-3 -45,-6 -88,-7 -88,-1 -79,6 25,22 43,7 77,7 93,1 13,-5 32,-9 41,-8 9,0 -2,6 -25,13 -50,16 -132,31 -153,28 -25,-3 -70,9 -70,19 0,5 10,7 23,5 12,-3 51,-7 87,-10 l 65,-6 -40,14 c -22,8 -70,22 -107,31 -37,10 -65,21 -63,26 7,10 -32,22 -45,14 -6,-4 -17,-2 -25,5 -10,8 -19,8 -34,-2 -12,-7 -21,-17 -21,-22 0,-14 -59,2 -87,24 -26,20 -63,19 -90,-3 -33,-25 -159,23 -131,51 5,5 7,23 3,40 -5,27 -12,31 -70,46 -35,9 -81,16 -102,16 -28,0 -34,3 -25,12 6,6 25,11 42,11 20,0 26,3 18,9 -10,6 -10,8 2,9 34,2 -48,18 -123,24 -89,7 -126,12 -172,21 -68,13 -70,20 -9,34 28,6 45,5 67,-7 38,-19 269,-54 281,-42 6,5 -3,11 -22,15 -18,4 -37,15 -43,25 -5,11 -21,19 -34,19 -14,0 -29,8 -35,20 -7,14 -21,20 -43,20 -18,0 -38,5 -45,12 -9,9 -12,9 -12,0 0,-9 -10,-11 -35,-6 -23,4 -35,2 -35,-5 0,-6 -5,-11 -10,-11 -6,0 -9,5 -8,12 2,8 -8,11 -29,9 -40,-3 -44,16 -5,25 46,10 48,12 13,13 -32,1 -33,2 -27,33 3,18 18,44 31,58 14,14 25,38 25,52 0,15 5,30 10,33 5,3 10,16 10,28 0,21 -1,21 -17,-3 -10,-14 -18,-29 -18,-34 0,-16 -20,-17 -40,-1 -20,15 -20,15 5,36 14,12 34,48 45,83 11,34 25,62 30,64 13,2 19,52 7,52 -6,0 -12,-7 -16,-15 -12,-31 -24,-14 -15,22 9,43 8,46 -14,37 -13,-5 -28,-43 -32,-79 0,-5 -13,-37 -29,-70 -16,-33 -29,-65 -29,-72 0,-7 -4,-10 -9,-7 -4,3 -8,1 -8,-5 0,-5 -21,-36 -47,-68 -66,-80 -93,-120 -93,-135 0,-9 -3,-9 -10,2 -8,12 -10,12 -15,-2 -9,-23 4,-41 25,-35 19,5 60,-17 60,-32 0,-5 -20,-21 -45,-37 -25,-15 -45,-32 -45,-37 0,-5 -6,-7 -13,-4 -8,3 -27,-6 -42,-19 -15,-13 -33,-21 -39,-17 -6,4 -4,-2 4,-12 9,-11 10,-16 3,-11 -7,4 -13,2 -13,-3 0,-6 -5,-11 -11,-11 -5,0 -7,6 -3,13 5,7 1,6 -10,-3 -11,-8 -14,-16 -7,-18 6,-2 11,-11 12,-20 0,-11 2,-12 6,-4 2,6 9,12 15,12 6,0 5,-6 -2,-15 -17,-20 -37,-4 -60,48 -10,22 -20,34 -24,29 -3,-6 -2,-13 4,-17 14,-9 12,-22 -4,-28 -11,-4 -13,-1 -9,10 4,11 2,14 -5,9 -16,-10 -16,16 0,32 9,9 9,12 -1,12 -8,0 -2,9 13,21 31,24 33,39 7,39 -14,0 -18,7 -17,24 0,13 5,24 10,23 5,-1 11,4 14,12 3,9 0,11 -8,6 -9,-6 -11,-4 -5,5 6,10 11,9 23,-6 14,-18 14,-18 8,2 -5,16 0,26 19,38 23,15 25,15 37,-4 15,-24 24,-25 32,-5 4,11 -3,19 -19,25 -16,6 -25,17 -25,31 0,12 -8,23 -20,26 -11,3 -20,9 -20,13 0,4 9,19 20,33 21,27 28,49 9,30 -6,-6 -17,-9 -24,-7 -17,7 -26,-56 -11,-75 9,-11 7,-13 -12,-7 -23,8 -28,0 -14,-21 6,-10 12,-10 28,2 23,17 34,19 34,5 0,-5 -7,-10 -15,-10 -8,0 -17,-11 -21,-25 -4,-14 -9,-23 -12,-20 -3,3 -17,-5 -30,-17 -23,-22 -24,-22 -19,-3 19,68 19,87 0,101 -17,14 -17,14 2,12 14,-2 19,2 16,12 -2,8 -4,21 -4,29 0,8 -12,1 -29,-17 -27,-31 -58,-42 -58,-22 0,6 9,10 19,10 10,0 21,6 24,13 4,10 -3,12 -24,9 -27,-4 -28,-3 -17,26 7,18 17,28 25,25 17,-7 16,7 -1,30 -13,17 -15,16 -21,-15 -4,-18 -13,-41 -21,-52 -9,-13 -10,-26 -3,-44 5,-13 7,-27 4,-31 -10,-9 -24,21 -18,38 3,9 -6,3 -21,-13 -14,-16 -26,-27 -26,-24 0,13 33,68 41,68 5,0 9,5 9,12 0,9 -3,9 -12,0 -9,-9 -14,-7 -24,6 -12,16 -13,16 -14,0 0,-9 4,-18 10,-20 6,-2 6,-8 0,-18 -8,-13 -10,-13 -10,2 0,9 -5,20 -12,24 -6,4 -8,3 -4,-4 3,-5 0,-12 -6,-15 -10,-3 -10,-7 1,-21 8,-9 11,-19 7,-23 -3,-3 -6,0 -7,8 0,8 -4,4 -9,-8 -6,-14 -15,-21 -24,-17 -8,3 -17,0 -22,-7 -4,-7 -3,-10 3,-6 7,4 10,-3 9,-18 -1,-29 -11,-32 -25,-8 -8,16 -10,14 -16,-9 -4,-15 -4,-32 0,-38 4,-7 1,-10 -6,-9 -20,4 -61,-20 -54,-32 4,-5 1,-9 -4,-9 -6,0 -11,8 -11,18 -1,10 -6,6 -14,-13 -7,-16 -11,-33 -9,-37 2,-5 -1,-8 -6,-8 -6,0 -11,7 -11,16 0,9 -5,12 -11,8 -9,-5 -10,4 -5,31 5,25 4,35 -3,30 -6,-3 -11,-3 -11,2 0,4 -16,9 -35,10 -24,1 -33,-2 -29,-9 5,-7 2,-8 -5,-4 -7,5 -10,15 -7,23 3,8 2,11 -3,8 -6,-3 -14,3 -20,12 -8,15 -10,15 -11,2 0,-8 5,-20 11,-26 6,-6 9,-17 7,-25 -3,-7 -14,7 -26,32 l -21,45 -16,-35 -16,-35 4,45 c 3,25 3,39 0,32 -3,-6 -9,-9 -15,-6 -6,4 -8,-4 -6,-22 3,-16 3,-23 1,-16 -3,7 -9,10 -14,7 -5,-4 -9,1 -9,9 0,21 -5,20 -33,-8 -28,-28 -43,-72 -26,-78 8,-3 6,-9 -4,-20 -9,-8 -13,-18 -10,-22 4,-3 -1,-6 -10,-6 -9,0 -17,-4 -17,-10 0,-5 -7,-10 -15,-10 -8,0 -15,-5 -15,-11 0,-5 -4,-7 -10,-4 -5,3 -10,1 -10,-6 0,-8 -11,-10 -35,-6 -27,4 -35,2 -35,-9 0,-8 -8,-18 -17,-21 -20,-8 -53,-40 -53,-52 0,-5 -9,-11 -21,-14 -12,-3 -18,-10 -15,-16 4,-5 -11,-18 -31,-27 -38,-18 -90,-64 -73,-64 6,0 10,-4 10,-10 0,-5 -11,-10 -24,-10 -13,0 -29,-7 -36,-15 -7,-8 -23,-15 -37,-15 -13,0 -22,-3 -20,-7 3,-5 -10,-8 -29,-9 -19,0 -34,4 -34,9 0,5 -5,5 -13,-1 -17,-15 -106,4 -123,25 -7,10 -11,25 -8,34 3,12 -3,15 -37,12 l -40,-3 1,57 c 1,52 -3,99 -10,113 -1,3 -1,20 0,38 1,18 -3,38 -8,45 -21,25 -15,127 8,127 4,0 10,9 13,21 8,29 24,16 38,-31 7,-22 16,-37 20,-34 5,3 9,1 9,-3 0,-34 395,-50 455,-19 39,20 45,20 45,-2 0,-11 9,-29 20,-42 11,-13 20,-28 20,-33 0,-6 12,5 26,24 14,19 30,33 36,31 6,-2 9,9 6,27 -2,17 -1,28 3,26 14,-9 17,76 3,103 -8,15 -14,35 -14,45 0,10 -4,16 -9,13 -5,-3 -12,9 -15,28 -4,18 -16,42 -28,52 -20,18 -21,18 -15,1 4,-10 3,-16 -3,-12 -5,3 -14,-5 -21,-17 -9,-19 -9,-21 2,-10 21,20 25,14 21,-29 -4,-36 -7,-40 -26,-35 -11,3 -24,6 -28,6 -4,0 -5,7 -2,15 7,18 3,19 -30,2 -14,-8 -23,-17 -19,-20 3,-4 2,-7 -3,-7 -6,0 -15,5 -22,12 -9,9 -12,8 -12,-5 0,-9 -3,-17 -8,-17 -14,0 -45,69 -39,90 4,17 2,20 -14,15 -20,-7 -28,18 -9,30 6,3 10,15 10,26 0,11 13,34 30,52 29,31 39,57 22,57 -4,0 -14,-9 -22,-20 -8,-11 -22,-20 -30,-20 -9,0 -20,-4 -25,-9 -11,-10 -61,4 -161,46 -50,20 -66,23 -83,14 -12,-7 -36,-9 -56,-5 -43,8 -77,-2 -55,-16 12,-7 10,-13 -10,-35 -40,-43 -55,-47 -57,-17 0,15 2,20 7,12 5,-8 10,-9 14,-2 3,6 2,13 -4,17 -7,4 -5,14 5,28 17,25 20,53 5,62 -5,3 -10,1 -10,-4 z m -40,-141 c 0,-5 -4,-10 -10,-10 -5,0 -10,5 -10,10 0,6 5,10 10,10 6,0 10,-4 10,-10 z m 281,-93 c 25,-4 59,-33 59,-49 0,-9 -3,-8 -10,2 -5,8 -12,11 -16,7 -4,-4 -13,-2 -20,4 -8,7 -14,7 -19,0 -4,-7 -16,-6 -35,4 -16,8 -36,15 -44,15 -19,0 -28,14 -20,33 4,12 11,12 45,0 22,-7 49,-15 60,-16 z m 1670,10 c -10,-9 -11,-8 -5,6 3,10 9,15 12,12 3,-3 0,-11 -7,-18 z m -1254,-29 c -3,-7 -5,-2 -5,12 0,14 2,19 5,13 2,-7 2,-19 0,-25 z m -290,-40 c -3,-8 -6,-5 -6,6 -1,11 2,17 5,13 3,-3 4,-12 1,-19 z m -233,-9 c 4,6 18,5 39,-1 56,-19 61,-20 102,-23 22,-2 41,-8 43,-13 1,-5 14,-7 27,-4 19,3 27,-2 36,-22 10,-20 15,-23 26,-14 19,15 58,-4 60,-30 1,-11 -5,-26 -14,-34 -13,-10 -18,-9 -33,10 -18,22 -19,22 -25,2 -7,-23 -51,-38 -67,-22 -8,8 -15,6 -26,-5 -23,-22 -142,-5 -142,22 0,7 -11,16 -25,19 -14,4 -25,13 -25,22 0,11 -6,13 -20,9 -22,-7 -26,9 -11,47 5,13 12,32 16,43 6,19 7,19 20,2 7,-10 16,-14 19,-8 z m -84,-51 c 0,-5 -4,-8 -10,-8 -5,0 -10,10 -10,23 0,18 2,19 10,7 5,-8 10,-18 10,-22 z m 1303,-43 c -3,-8 -10,-15 -15,-15 -7,0 -6,5 1,13 6,8 7,18 3,22 -4,5 -2,5 5,1 7,-4 10,-13 6,-21 z m 74,9 c -3,-3 -12,-4 -19,-1 -8,3 -5,6 6,6 11,1 17,-2 13,-5 z m -210,-56 c -3,-8 -6,-5 -6,6 -1,11 2,17 5,13 3,-3 4,-12 1,-19 z m 243,2 c 0,-5 -5,-10 -12,-10 -6,0 -3,-9 7,-20 15,-17 16,-20 3,-20 -16,0 -28,26 -21,48 5,14 23,16 23,2 z m 340,0 c 0,-5 -2,-10 -4,-10 -3,0 -8,5 -11,10 -3,6 -1,10 4,10 6,0 11,-4 11,-10 z m -876,-15 c 3,-8 1,-15 -4,-15 -6,0 -10,7 -10,15 0,8 2,15 4,15 2,0 6,-7 10,-15 z m 353,0 c 0,-10 -9,-14 -28,-13 -15,1 -25,6 -23,10 3,5 9,6 14,3 5,-3 11,-1 15,5 9,15 22,12 22,-5 z m -219,-48 c 4,-29 -31,-57 -44,-35 -4,6 -3,8 3,5 6,-4 17,0 24,9 10,13 10,19 0,36 -10,16 -10,19 1,16 7,-3 14,-16 16,-31 z m 159,-9 c -3,-7 -5,-2 -5,12 0,14 2,19 5,13 2,-7 2,-19 0,-25 z m -252,-26 c -10,-10 -16,-12 -13,-7 3,6 8,19 13,30 5,14 9,16 12,7 3,-8 -3,-21 -12,-30 z m 492,32 c -3,-3 -12,-4 -19,-1 -8,3 -5,6 6,6 11,1 17,-2 13,-5 z m -623,-19 c 3,-8 1,-15 -4,-15 -6,0 -10,7 -10,15 0,8 2,15 4,15 2,0 6,-7 10,-15 z m 603,-17 c -3,-8 -6,-5 -6,6 -1,11 2,17 5,13 3,-3 4,-12 1,-19 z m 37,0 c -4,-7 2,-8 17,-3 23,7 23,6 5,-8 -17,-12 -22,-12 -34,-1 -14,15 -7,38 9,28 5,-3 6,-10 3,-16 z m -334,2 c 0,-5 -4,-10 -10,-10 -5,0 -10,5 -10,10 0,6 5,10 10,10 6,0 10,-4 10,-10 z m -86,-25 c -4,-8 -10,-15 -15,-15 -4,0 -6,7 -3,15 4,8 10,15 15,15 4,0 6,-7 3,-15 z m 160,-21 c 3,-8 2,-12 -4,-9 -6,3 -10,10 -10,16 0,14 7,11 14,-7 z m -1504,-30 c 0,-8 -4,-12 -10,-9 -5,3 -10,10 -10,16 0,5 5,9 10,9 6,0 10,-7 10,-16 z m 1746,-4 c 0,-12 -4,-16 -9,-11 -5,5 -6,14 -3,20 10,15 12,14 12,-9 z m -336,6 c 0,-2 -9,-6 -20,-9 -11,-3 -18,-1 -14,4 5,9 34,13 34,5 z m 340,-68 c 0,-5 -7,-3 -15,6 -8,8 -15,18 -15,22 0,3 7,1 15,-6 8,-7 15,-17 15,-22 z m 62,-6 c -3,-10 -1,-13 6,-8 6,3 13,2 17,-4 3,-5 -1,-10 -10,-10 -9,0 -13,-4 -10,-10 3,-5 3,-10 -2,-11 -4,0 -16,-2 -25,-4 -14,-2 -18,3 -18,23 0,19 3,23 9,13 7,-11 10,-11 17,0 4,8 3,14 -5,17 -9,3 -9,7 0,18 15,18 31,0 21,-24 z m 144,17 c 3,-6 2,-15 -4,-21 -6,-6 -11,-2 -15,11 -5,22 7,29 19,10 z m 16,-45 c -12,-8 -22,-23 -23,-32 0,-10 -3,-12 -6,-5 -2,7 4,31 14,52 16,35 19,37 27,20 7,-15 5,-23 -12,-35 z m -412,-14 c 0,-5 -4,-10 -10,-10 -5,0 -10,5 -10,10 0,6 5,10 10,10 6,0 10,-4 10,-10 z m 1445,-110 c 3,-5 -1,-10 -10,-10 -9,0 -13,5 -10,10 3,6 8,10 10,10 2,0 7,-4 10,-10 z m 80,-30 c 13,-5 14,-9 5,-9 -8,0 -24,4 -35,9 -13,5 -14,9 -5,9 8,0 24,-4 35,-9 z M 1330,3080 c -18,-12 -30,-13 -30,-2 0,4 10,9 22,9 18,2 20,0 8,-7 z m 0,-41 c 0,-5 -4,-9 -10,-9 -5,0 -10,7 -10,16 0,8 5,12 10,9 6,-3 10,-10 10,-16 z m 50,0 c 14,-11 20,-18 13,-15 -6,3 -13,1 -15,-6 -3,-7 -11,-9 -24,-4 -13,6 -15,10 -6,13 10,4 10,8 1,19 -17,21 2,16 31,-7 z m 3338,-46 c 26,-5 30,-8 21,-19 -6,-8 -8,-14 -4,-14 4,0 15,10 24,21 14,17 23,20 49,14 18,-3 30,-11 26,-16 -3,-5 7,-9 23,-9 15,-1 52,-3 81,-6 39,-4 52,-2 52,7 0,8 7,2 17,-11 9,-14 25,-35 37,-48 11,-12 21,-28 22,-35 1,-6 6,-21 10,-31 5,-14 4,-17 -4,-12 -7,4 -12,2 -12,-4 0,-7 8,-9 22,-5 17,6 20,4 15,-9 -4,-9 -3,-16 1,-16 4,-1 25,-17 47,-37 41,-37 34,-36 -20,1 -34,24 -63,42 -85,52 -8,4 -17,10 -20,13 -24,28 -271,120 -322,121 -10,0 -18,6 -18,14 0,8 -8,23 -17,32 -17,17 -17,18 2,10 11,-4 35,-10 53,-13 z m -115,-3 c -23,-5 -53,-16 -66,-25 -17,-11 -27,-13 -32,-6 -3,7 3,11 14,11 12,0 21,4 21,9 0,11 30,18 75,19 23,0 21,-2 -12,-8 z m 57,-20 c 0,-5 -9,-10 -19,-10 -11,0 -23,5 -26,10 -4,6 5,10 19,10 14,0 26,-4 26,-10 z m -116,-130 c -12,-5 -25,-13 -29,-19 -3,-6 -28,-11 -54,-11 -26,0 -52,-5 -58,-11 -17,-17 -193,-25 -193,-9 0,8 9,11 27,7 15,-3 41,2 57,10 16,8 48,15 70,15 25,-1 35,2 27,7 -8,5 15,8 54,6 37,-1 62,1 56,4 -6,4 6,7 27,8 29,1 33,-1 16,-7 z m -454,-90 c -13,-8 -12,-10 3,-10 9,0 17,-6 17,-13 0,-7 10,-17 22,-22 27,-12 36,-35 14,-35 -19,0 -113,-48 -122,-61 -8,-14 -24,-10 -24,6 0,8 -6,15 -14,15 -16,0 -24,24 -18,58 6,30 68,72 107,72 23,0 27,-3 15,-10 z m 740,-410 c 0,-5 -2,-10 -4,-10 -3,0 -8,5 -11,10 -3,6 -1,10 4,10 6,0 11,-4 11,-10 z m 110,0 c 0,-5 -7,-10 -15,-10 -8,0 -15,5 -15,10 0,6 7,10 15,10 8,0 15,-4 15,-10 z m -143,-15 c 8,-24 -3,-29 -27,-12 -15,11 -18,16 -8,20 22,9 28,8 35,-8 z m 243,-156 c 0,-9 -60,-17 -65,-9 -3,4 -2,10 2,14 8,8 63,4 63,-5 z m -864,-47 c -23,-23 -33,-6 -10,19 12,13 20,16 22,9 3,-7 -3,-19 -12,-28 z m 904,34 c 0,-11 -19,-15 -25,-6 -3,5 1,10 9,10 9,0 16,-2 16,-4 z m 110,-156 c 0,-5 -2,-10 -4,-10 -3,0 -8,5 -11,10 -3,6 -1,10 4,10 6,0 11,-4 11,-10 z m 150,-350 c 0,-5 -7,-10 -15,-10 -8,0 -15,5 -15,10 0,6 7,10 15,10 8,0 15,-4 15,-10 z m 41,-53 c -14,-14 -32,8 -24,29 4,11 8,10 20,-2 12,-12 13,-18 4,-27 z m 36,-24 c 4,-10 13,-23 21,-29 14,-10 9,-34 -6,-34 -9,0 -42,54 -42,69 0,18 20,13 27,-6 z m 48,-83 c 3,-5 2,-10 -4,-10 -5,0 -13,5 -16,10 -3,6 -2,10 4,10 5,0 13,-4 16,-10 z m 35,-36 c 0,-14 -3,-14 -15,-4 -8,7 -15,14 -15,16 0,2 7,4 15,4 8,0 15,-7 15,-16 z M 642,700 c -26,-58 -42,-75 -42,-46 0,8 -5,18 -12,22 -7,4 -8,3 -4,-4 5,-8 -2,-12 -19,-12 -15,0 -34,-4 -44,-9 -11,-6 -33,-6 -60,1 -32,8 -45,8 -50,-1 -4,-6 -15,-9 -24,-5 -10,3 -24,1 -32,-6 -16,-13 -20,-3 -7,16 20,30 221,102 289,103 l 32,1 z"
       id="path92" />
    <path
       d="m 3280,3989 c 0,-6 -7,-9 -15,-6 -8,4 -17,1 -21,-5 -4,-7 -3,-8 4,-4 11,7 17,-6 13,-28 -1,-4 -4,-25 -6,-45 -2,-20 -7,-49 -10,-66 l -6,-30 13,25 c 9,15 22,25 36,24 11,0 19,3 16,8 -3,4 -12,8 -20,8 -18,0 -18,15 2,34 8,9 11,16 5,16 -6,0 -11,7 -11,15 0,9 6,12 18,9 16,-5 15,-5 -1,6 -12,7 -16,18 -12,31 4,10 4,19 1,19 -3,0 -6,-5 -6,-11 z"
       id="path94" />
    <path
       d="m 3245,3949 c -4,-6 -5,-12 -2,-15 2,-3 7,2 10,11 7,17 1,20 -8,4 z"
       id="path96" />
    <path
       d="m 3378,3933 c -10,-2 -18,-11 -18,-19 0,-11 4,-10 20,3 17,15 26,26 18,22 -2,-1 -11,-3 -20,-6 z"
       id="path98" />
    <path
       d="m 2400,3915 c 0,-8 5,-15 10,-15 6,0 10,7 10,15 0,8 -4,15 -10,15 -5,0 -10,-7 -10,-15 z"
       id="path100" />
    <path
       d="m 3776,3901 c -4,-7 -5,-15 -2,-18 9,-9 19,4 14,18 -4,11 -6,11 -12,0 z"
       id="path102" />
    <path
       d="m 3290,3790 c 0,-11 4,-20 9,-20 5,0 7,9 4,20 -3,11 -7,20 -9,20 -2,0 -4,-9 -4,-20 z"
       id="path104" />
    <path
       d="m 3061,3774 c 0,-11 3,-14 6,-6 3,7 2,16 -1,19 -3,4 -6,-2 -5,-13 z"
       id="path106" />
    <path
       d="m 2606,3713 c -6,-14 -5,-15 5,-6 7,7 10,15 7,18 -3,3 -9,-2 -12,-12 z"
       id="path108" />
    <path
       d="m 3380,3711 c 0,-10 19,-25 25,-20 1,2 -3,10 -11,17 -8,7 -14,8 -14,3 z"
       id="path110" />
    <path
       d="m 3790,3630 c 8,-5 24,-10 34,-10 26,0 18,6 -19,14 -22,5 -26,4 -15,-4 z"
       id="path112" />
    <path
       d="m 4075,3532 c 17,-9 36,-15 43,-14 6,2 12,-2 12,-8 0,-5 8,-10 17,-10 34,0 -19,37 -62,43 l -40,6 z"
       id="path114" />
    <path
       d="m 3320,3521 c 0,-5 7,-11 15,-15 8,-3 15,-1 15,3 0,5 -7,11 -15,15 -8,3 -15,1 -15,-3 z"
       id="path116" />
    <path
       d="m 3390,3510 c 0,-19 3,-21 12,-12 9,9 9,15 0,24 -9,9 -12,7 -12,-12 z"
       id="path118" />
    <path
       d="m 1995,3490 c 3,-5 13,-10 21,-10 8,0 14,5 14,10 0,6 -9,10 -21,10 -11,0 -17,-4 -14,-10 z"
       id="path120" />
    <path
       d="m 1461,3474 c 0,-11 3,-14 6,-6 3,7 2,16 -1,19 -3,4 -6,-2 -5,-13 z"
       id="path122" />
    <path
       d="m 1945,3450 c -3,-5 1,-10 9,-10 9,0 16,-4 16,-10 0,-5 -6,-10 -14,-10 -7,0 -20,-8 -27,-17 -12,-15 -12,-16 3,-11 10,4 19,1 22,-8 7,-19 31,-13 32,7 0,8 4,22 9,33 12,27 -34,51 -50,26 z"
       id="path124" />
    <path
       d="m 4189,3398 c -6,-29 -3,-91 5,-95 6,-3 8,-2 3,2 -4,5 0,17 10,27 15,17 15,19 -3,40 l -19,21 35,-6 c 25,-5 31,-4 20,3 -13,9 -49,14 -51,8 z"
       id="path126" />
    <path
       d="m 1930,3360 c -9,-16 -8,-20 5,-20 8,0 15,9 15,20 0,11 -2,20 -5,20 -2,0 -9,-9 -15,-20 z"
       id="path128" />
    <path
       d="m 4280,3331 c 0,-25 6,-27 13,-6 4,8 2,17 -3,20 -6,4 -10,-3 -10,-14 z"
       id="path130" />
    <path
       d="m 4226,3314 c -5,-12 -2,-15 10,-10 8,3 18,6 20,6 2,0 4,5 4,10 0,16 -27,11 -34,-6 z"
       id="path132" />
    <path
       d="m 1405,3291 c -3,-5 -1,-12 5,-16 5,-3 10,1 10,9 0,18 -6,21 -15,7 z"
       id="path134" />
    <path
       d="m 4798,3213 c 6,-2 18,-2 25,0 6,3 1,5 -13,5 -14,0 -19,-2 -12,-5 z"
       id="path136" />
    <path
       d="m 4880,3170 c -8,-5 -10,-10 -5,-10 6,0 17,5 25,10 8,5 11,10 5,10 -5,0 -17,-5 -25,-10 z"
       id="path138" />
    <path
       d="m 4940,3155 c 35,-20 62,-19 36,0 -11,8 -29,15 -40,15 -19,-1 -19,-2 4,-15 z"
       id="path140" />
    <path
       d="m 5008,3133 c 6,-2 18,-2 25,0 6,3 1,5 -13,5 -14,0 -19,-2 -12,-5 z"
       id="path142" />
    <path
       d="m 660,1057 c 0,-4 -18,-14 -40,-23 -22,-9 -50,-29 -63,-44 -13,-15 -30,-29 -38,-32 -9,-4 -5,-9 14,-17 29,-11 215,3 228,17 4,4 11,22 17,40 10,30 10,35 -7,39 -11,3 -18,10 -15,16 3,8 -12,12 -46,12 -27,0 -50,-3 -50,-8 z"
       id="path144" />
    <path
       d="m 385,920 c 3,-5 8,-10 11,-10 2,0 4,5 4,10 0,6 -5,10 -11,10 -5,0 -7,-4 -4,-10 z"
       id="path146" />
    <path
       d="m 1330,580 c 0,-5 5,-10 10,-10 6,0 10,5 10,10 0,6 -4,10 -10,10 -5,0 -10,-4 -10,-10 z"
       id="path148" />
    <path
       d="m 1275,520 c -3,-5 -1,-10 4,-10 6,0 11,5 11,10 0,6 -2,10 -4,10 -3,0 -8,-4 -11,-10 z"
       id="path150" />
  </g>
</svg>
