<?xml version="1.0" standalone="no"?>
<!DOCTYPE svg PUBLIC "-//W3C//DTD SVG 20010904//EN"
 "http://www.w3.org/TR/2001/REC-SVG-20010904/DTD/svg10.dtd">
<svg version="1.0" xmlns="http://www.w3.org/2000/svg"
 width="619.000000pt" height="619.000000pt" viewBox="0 0 619.000000 619.000000"
 preserveAspectRatio="xMidYMid meet">
<g transform="translate(0.000000,619.000000) scale(0.100000,-0.100000)"
fill="#000000" stroke="none">
<path d="M2890 6184 c-568 -50 -1051 -214 -1491 -505 -141 -94 -334 -245 -393
-308 -23 -24 -26 -31 -13 -31 24 0 151 42 158 53 5 7 114 25 167 27 6 0 12 9
12 20 0 11 4 20 10 20 5 0 9 5 7 11 -5 22 88 62 175 74 48 6 85 8 82 3 -10
-15 152 -9 191 8 34 14 53 14 159 4 213 -22 365 -26 410 -13 49 15 66 16 46 3
-9 -6 -10 -10 -3 -10 7 0 16 6 20 14 11 18 71 48 83 41 5 -3 26 -2 45 4 19 5
35 6 35 1 0 -10 -29 -22 -40 -15 -4 3 -13 -2 -20 -10 -7 -8 -26 -15 -42 -15
-20 0 -31 -6 -35 -18 -2 -10 -23 -30 -46 -45 -65 -42 -100 -77 -131 -136 -27
-51 -28 -58 -22 -134 4 -45 8 -82 9 -84 7 -6 46 10 42 17 -6 10 97 120 112
120 14 0 29 -19 38 -50 4 -14 27 -53 51 -87 23 -35 44 -66 46 -71 4 -10 68
-55 68 -48 0 2 -6 11 -13 18 -25 26 -37 67 -27 93 5 14 12 25 15 25 4 0 3 -4
0 -10 -3 -5 0 -10 8 -10 8 0 22 -9 32 -20 28 -31 45 -25 45 14 0 19 5 38 10
41 6 3 10 15 10 25 0 11 10 25 23 31 12 6 30 20 40 30 18 19 53 24 95 13 19
-5 22 -13 22 -52 l0 -46 31 34 c17 19 28 30 25 25 -9 -21 78 -11 96 10 15 17
19 18 27 5 9 -12 12 -12 28 2 10 8 32 15 49 15 26 0 31 -4 28 -24 -3 -32 14
-39 25 -10 11 27 72 54 93 41 9 -6 9 -3 -1 9 -7 9 -20 17 -27 17 -8 0 -14 4
-14 9 0 5 -9 13 -20 16 -30 9 -16 22 26 23 43 2 62 -7 43 -19 -9 -6 -2 -9 21
-9 l35 0 -25 21 -25 21 29 -7 c38 -8 81 -41 64 -48 -7 -3 4 -6 24 -6 37 -1 46
-15 23 -34 -5 -5 9 -7 32 -5 23 2 39 0 37 -4 -3 -5 -12 -8 -20 -8 -13 0 -13
-3 -1 -27 8 -16 20 -40 27 -55 17 -35 30 -36 30 -3 0 14 5 25 11 25 16 0 5
-71 -20 -119 -27 -53 -41 -67 -67 -74 -10 -2 -1 -3 21 -1 22 2 50 7 63 10 18
5 21 3 16 -10 -3 -9 -1 -16 5 -16 6 0 11 -8 11 -18 0 -10 18 -37 40 -60 22
-22 40 -46 40 -52 0 -5 4 -10 9 -10 17 0 47 -65 70 -150 21 -75 22 -90 11
-140 -16 -74 -25 -91 -63 -117 -31 -22 -44 -69 -23 -84 5 -4 -1 -17 -13 -30
-11 -12 -21 -26 -21 -31 0 -4 -7 -8 -15 -8 -18 0 -20 -16 -2 -24 8 -4 8 -8 2
-11 -6 -3 -9 -21 -7 -40 3 -29 -1 -39 -22 -56 -28 -22 -34 -37 -13 -36 42 1
47 -3 37 -29 -8 -21 -8 -25 4 -21 21 8 27 -3 15 -25 -20 -37 7 -42 32 -6 13
18 27 35 31 36 4 2 8 10 8 18 0 8 5 14 10 14 6 0 10 10 10 22 0 20 1 21 20 3
16 -14 20 -15 24 -4 15 48 13 47 51 39 28 -6 38 -5 42 6 6 16 33 19 33 4 0
-22 40 -9 52 18 10 18 20 26 33 24 26 -5 35 -20 35 -58 0 -23 5 -33 19 -37 27
-7 31 0 21 32 -4 16 -3 35 2 45 9 16 7 45 -8 110 -6 26 -5 29 15 23 23 -6 81
18 81 34 0 6 12 21 26 34 15 14 24 25 20 25 -4 0 -2 9 4 20 9 16 8 20 -6 20
-11 0 -14 5 -9 18 4 9 8 24 10 32 7 31 36 104 46 116 11 13 9 51 -4 72 -5 6
-5 17 -1 24 4 6 8 24 9 39 2 15 10 35 18 44 15 14 17 12 26 -21 9 -33 7 -48
-16 -104 -3 -8 -5 -28 -4 -44 2 -16 -3 -32 -9 -36 -7 -4 -14 -29 -17 -56 -9
-84 -10 -99 -13 -104 -4 -8 -7 -23 -8 -43 -2 -13 -7 -17 -20 -13 -23 8 -46
-44 -38 -85 4 -23 1 -32 -19 -45 -24 -16 -35 -54 -15 -54 6 0 10 7 10 15 0 7
6 18 13 22 14 9 30 41 48 95 18 54 29 26 13 -34 -7 -27 -10 -56 -7 -64 3 -8 1
-14 -4 -14 -6 0 -11 -12 -11 -27 -5 -74 -18 -137 -31 -141 -10 -3 -12 2 -7 21
3 14 2 28 -2 31 -16 10 -34 -12 -43 -51 -19 -86 -96 -224 -171 -307 -10 -11
-18 -23 -18 -27 0 -5 -16 -23 -35 -42 -44 -43 -44 -57 -1 -57 34 0 67 -25 50
-38 -41 -35 -91 -66 -101 -64 -7 2 -13 -2 -13 -8 0 -16 -27 -12 -34 5 -3 8
-10 15 -15 15 -12 0 -9 -33 4 -42 6 -5 5 -8 -2 -8 -7 0 -24 -10 -38 -22 -20
-18 -23 -24 -12 -37 11 -14 10 -14 -5 -2 -10 7 -18 20 -18 27 0 8 -5 14 -11
14 -6 0 -9 7 -6 14 4 9 -2 18 -15 22 -21 6 -21 7 -4 20 15 11 21 11 33 -2 8
-8 20 -11 26 -7 6 4 1 10 -12 15 -15 5 -21 14 -17 23 3 9 0 15 -10 15 -8 0
-23 8 -32 17 -14 14 -15 16 -1 11 9 -4 20 2 28 13 6 11 15 17 20 15 4 -3 6 6
3 19 -2 14 0 25 6 25 6 0 19 3 29 6 15 5 15 4 3 -5 -8 -6 -13 -11 -10 -12 54
-10 60 -9 60 11 0 11 -6 20 -14 20 -8 0 -17 4 -20 9 -3 4 7 6 22 5 15 -2 20
-1 12 2 -8 4 -23 15 -34 26 -11 10 -27 18 -35 18 -14 0 -14 2 -1 10 8 5 11 12
7 16 -4 4 0 16 10 26 23 26 10 33 -28 14 -39 -19 -42 -20 -33 -3 5 8 2 8 -9
-2 -9 -7 -17 -10 -17 -6 0 5 -10 0 -22 -11 -12 -10 -18 -13 -14 -7 5 9 -2 11
-26 8 -28 -5 -30 -4 -10 4 12 6 22 15 22 20 0 6 6 8 14 5 8 -3 16 3 19 15 3
13 13 21 26 21 12 0 21 5 21 10 0 6 -8 10 -17 10 -12 0 -14 3 -6 8 13 8 13 29
0 50 -5 7 -3 12 7 12 8 0 18 5 22 12 4 6 3 8 -3 5 -6 -4 -18 2 -28 13 -25 27
-32 25 -33 -10 0 -16 4 -30 9 -30 5 0 9 -5 9 -11 0 -7 -10 -9 -25 -5 -14 4
-25 2 -25 -4 0 -5 5 -10 11 -10 5 0 7 -4 4 -10 -4 -6 1 -7 10 -3 13 4 16 1 13
-13 -3 -14 -11 -18 -31 -16 -21 2 -28 -2 -33 -22 -6 -25 -42 -42 -58 -26 -5 5
-17 0 -29 -11 -12 -11 -27 -17 -34 -15 -7 3 -13 1 -13 -5 0 -5 7 -12 15 -15
14 -6 13 -8 -2 -21 -10 -8 -12 -12 -5 -8 6 3 12 2 12 -4 0 -5 -10 -11 -22 -13
-17 -2 -22 -9 -20 -25 3 -18 -2 -23 -17 -23 -12 0 -21 -6 -21 -13 0 -18 -32
-47 -52 -47 -18 0 -43 -44 -34 -59 4 -6 3 -11 -3 -11 -16 0 -33 40 -28 66 5
26 -8 34 -56 34 -30 0 -30 1 -11 16 18 15 17 15 -13 10 -20 -3 -33 -1 -37 7
-3 9 -7 8 -15 -3 -9 -13 -11 -13 -11 3 0 9 -3 17 -6 17 -4 0 -13 -8 -20 -17
-12 -17 -13 -16 -14 5 0 24 -14 29 -26 10 -5 -7 -11 -5 -21 7 -12 17 -13 17
-13 2 0 -9 -7 -17 -16 -17 -8 0 -13 -4 -10 -9 3 -5 -1 -12 -10 -15 -9 -4 -14
-13 -10 -21 3 -9 -1 -18 -9 -22 -12 -4 -13 -8 -3 -20 9 -11 9 -16 -3 -24 -8
-5 -19 -9 -26 -9 -6 0 -15 -4 -18 -10 -3 -6 1 -7 10 -4 11 5 14 2 9 -10 -3 -9
-10 -13 -15 -10 -5 3 -16 -2 -25 -10 -17 -18 -54 -22 -54 -6 0 6 5 10 11 10 6
0 9 9 6 20 -3 11 -1 20 4 20 5 0 9 7 9 15 0 8 6 15 14 15 8 0 15 8 16 18 5 52
4 140 -2 162 -11 44 -58 128 -82 147 -13 10 -26 28 -30 40 -8 24 -46 39 -46
17 0 -8 8 -14 17 -14 9 0 14 -3 10 -6 -3 -3 3 -21 14 -40 16 -29 17 -38 6 -55
-10 -17 -9 -22 6 -30 9 -6 17 -17 17 -24 0 -19 -9 -19 -32 2 -17 15 -22 16
-70 0 -48 -15 -52 -15 -64 1 -8 9 -12 29 -10 45 3 21 0 27 -15 27 -20 0 -26
15 -9 25 6 3 10 15 10 26 0 11 13 34 30 52 16 18 30 37 30 43 0 23 -15 23 -34
1 -42 -48 -106 -43 -227 19 -45 22 -54 24 -86 13 -19 -6 -47 -9 -63 -5 -18 3
-33 0 -40 -9 -15 -18 -28 -19 -27 -2 0 6 -1 26 -1 44 l-2 31 -31 -26 c-109
-93 -109 -91 -76 -287 2 -11 11 -34 20 -52 19 -36 22 -81 6 -103 -8 -11 -12
-12 -16 -2 -2 7 -10 18 -17 25 -13 13 -47 82 -50 101 -1 6 -5 17 -9 24 -5 6
-5 17 -2 22 3 6 -3 22 -14 36 -12 15 -21 33 -21 40 0 8 -4 14 -10 14 -5 0 -10
-7 -10 -15 0 -8 -6 -15 -13 -15 -16 0 -39 -37 -27 -45 15 -9 7 -48 -17 -73
-12 -14 -20 -28 -17 -33 3 -5 -2 -9 -10 -9 -8 0 -17 -4 -20 -9 -3 -4 7 -6 22
-5 15 2 20 1 12 -2 -32 -14 -42 -27 -28 -35 10 -7 10 -11 0 -21 -19 -19 -14
-30 7 -18 30 15 34 13 28 -17 -2 -16 -1 -37 3 -48 9 -23 -6 -59 -21 -50 -5 4
-12 -1 -15 -9 -3 -9 -12 -16 -20 -16 -8 0 -14 -7 -14 -15 0 -8 7 -15 15 -15
13 0 13 -4 4 -22 -30 -58 -31 -61 -19 -68 9 -6 9 -9 -1 -13 -10 -4 -10 -6 -1
-6 20 -1 14 -21 -7 -21 -10 0 -26 -12 -36 -26 -19 -29 -10 -49 9 -21 7 9 19
17 26 17 9 0 6 -7 -8 -20 -12 -11 -24 -20 -27 -20 -27 0 -42 -79 -17 -87 6 -3
12 -9 12 -14 0 -6 -4 -7 -10 -4 -5 3 -20 0 -32 -7 -28 -15 -78 -19 -78 -6 0 5
-15 15 -32 23 -18 7 -51 32 -73 55 -22 23 -83 66 -136 96 -83 47 -102 54 -150
54 -82 0 -214 -44 -254 -85 -30 -31 -86 -69 -128 -89 -50 -23 -120 -96 -148
-154 -38 -81 -39 -87 -58 -382 -7 -107 -15 -150 -37 -210 -25 -68 -27 -88 -28
-218 l-1 -144 -43 -36 c-23 -20 -42 -45 -42 -54 0 -9 -4 -19 -9 -23 -9 -5 -8
-50 4 -171 3 -28 12 -71 21 -95 9 -24 15 -64 15 -88 0 -25 4 -63 10 -85 22
-89 42 -193 44 -232 3 -55 14 -73 31 -50 10 14 27 17 109 14 l98 -3 12 34 c14
42 25 29 30 -32 3 -59 37 -167 51 -167 7 0 23 13 36 28 16 19 43 34 84 45 70
20 128 23 104 6 -11 -8 -7 -9 17 -4 18 4 40 1 50 -5 15 -9 14 -10 -7 -5 -22 6
-20 3 10 -18 27 -19 41 -22 67 -17 17 4 40 16 50 25 43 44 102 59 228 60 109
0 179 -8 427 -51 21 -4 35 -10 32 -15 -3 -5 6 -9 20 -9 14 0 26 -4 26 -8 0 -4
25 -8 55 -8 36 -1 62 -7 73 -17 11 -10 26 -14 41 -10 17 4 22 3 17 -5 -4 -7
-16 -12 -26 -12 -13 0 -22 -9 -26 -25 -3 -14 -10 -22 -15 -19 -5 3 -6 -1 -4
-8 9 -24 -107 -128 -143 -128 -15 0 -24 -10 -32 -36 -9 -27 -15 -33 -21 -23
-6 10 -10 5 -15 -19 -6 -31 -24 -55 -24 -33 0 19 -24 12 -49 -14 -13 -14 -27
-25 -32 -25 -5 0 -9 -12 -8 -27 0 -16 3 -22 6 -15 5 13 43 17 43 4 0 -4 -5
-13 -12 -20 -9 -9 -8 -12 5 -12 9 0 17 -8 17 -17 0 -10 3 -35 6 -56 4 -23 3
-37 -4 -37 -5 0 -13 23 -17 50 -9 62 -28 65 -49 8 l-15 -43 5 48 c5 39 4 47
-10 47 -10 0 -16 9 -17 23 0 15 -2 17 -6 7 -4 -8 -15 -22 -25 -31 -17 -15 -17
-17 -2 -23 13 -5 15 -9 6 -18 -9 -9 -17 -6 -33 11 -26 27 -60 24 -74 -7 -8
-19 -16 -23 -39 -19 -22 3 -30 -1 -34 -15 -5 -22 -42 -25 -42 -3 0 24 -14 17
-34 -15 -9 -17 -23 -30 -29 -28 -7 1 -22 -1 -33 -5 -28 -10 -88 22 -93 49 -2
10 -12 25 -22 32 -11 7 -17 17 -14 22 3 4 -6 15 -20 24 -27 18 -34 60 -12 70
8 3 7 8 -6 16 -21 13 -23 45 -3 37 8 -3 17 1 20 9 3 8 1 14 -4 14 -13 0 -50
37 -50 49 0 5 5 11 11 13 7 2 9 13 5 25 -5 15 -12 20 -23 16 -11 -4 -14 -2 -9
5 19 31 -20 6 -79 -51 -60 -56 -110 -85 -124 -71 -7 7 51 53 67 54 23 0 110
99 114 129 l4 30 -38 -20 c-46 -23 -59 -18 -52 20 5 24 2 30 -25 41 -58 23
-148 -6 -207 -68 -17 -18 -40 -32 -50 -32 -17 0 -17 -2 3 -22 21 -21 25 -21
134 -10 62 7 115 10 117 7 3 -3 -6 -5 -19 -5 -19 0 -21 -2 -9 -10 10 -6 11
-10 3 -10 -7 0 -13 -6 -13 -12 0 -7 -8 -23 -18 -35 -16 -20 -21 -20 -64 -10
-27 6 -48 15 -48 19 0 5 -7 8 -15 8 -21 0 161 -168 273 -251 464 -348 969
-552 1537 -620 142 -18 537 -18 680 0 374 44 711 145 1046 313 431 215 794
517 1089 907 73 97 200 298 200 318 0 7 4 13 8 13 4 0 18 20 29 44 19 39 20
46 7 71 -8 15 -14 31 -14 37 0 5 -5 14 -10 21 -43 50 -50 62 -46 74 3 8 -2 13
-13 13 -18 0 -36 25 -32 43 0 4 -6 10 -14 13 -12 5 -13 9 -4 21 9 10 9 17 1
25 -9 9 -12 9 -12 -1 0 -19 -27 10 -27 29 -1 28 -13 95 -24 129 -9 26 -9 35 2
42 11 7 11 9 -3 9 -9 0 -18 -5 -20 -11 -4 -11 -38 -2 -38 11 0 4 9 10 21 13
30 8 14 27 -22 27 -28 0 -89 24 -89 36 0 3 15 2 34 -1 29 -6 34 -4 39 17 10
37 9 42 -24 76 -17 18 -28 32 -24 32 5 0 -2 9 -15 20 -13 11 -36 20 -52 20
-17 0 -27 5 -25 12 1 9 -16 13 -60 13 -35 1 -68 6 -74 12 -9 9 -7 11 8 7 12
-3 24 -1 27 5 4 6 1 11 -7 11 -21 0 -16 49 5 56 20 6 31 38 26 77 -4 29 -70
103 -106 118 -29 11 -20 29 11 22 52 -12 87 -25 87 -34 0 -5 5 -9 12 -9 9 0 9
3 0 12 -7 7 -12 21 -12 32 0 16 3 17 12 8 7 -7 20 -12 30 -12 11 0 30 -11 44
-25 14 -14 29 -23 34 -20 5 3 11 -3 15 -14 3 -11 16 -21 28 -23 12 -2 21 -9
20 -16 -2 -6 4 -12 12 -12 8 0 15 -4 15 -10 0 -5 7 -10 15 -10 18 0 18 -5 4
-33 -9 -18 -9 -20 2 -9 18 17 34 15 20 -2 -11 -13 8 -42 81 -118 10 -9 15 -24
12 -33 -4 -8 -1 -15 5 -15 6 0 17 -12 23 -27 7 -16 29 -45 50 -66 21 -21 36
-42 33 -47 -3 -4 1 -10 9 -13 14 -5 33 -35 56 -86 6 -13 24 -40 41 -59 17 -19
40 -54 52 -78 26 -55 42 -57 33 -4 -3 22 -2 48 3 57 5 10 17 38 26 62 9 24 27
57 40 75 44 58 105 317 136 581 20 160 17 529 -4 696 -34 265 -97 514 -187
741 -53 135 -126 298 -134 298 -3 0 -2 -16 1 -35 3 -20 1 -35 -4 -35 -21 0
-33 -73 -22 -140 5 -36 12 -83 15 -105 3 -21 8 -44 12 -50 10 -16 11 -65 1
-59 -5 3 -10 -7 -10 -23 -1 -15 -2 -41 -3 -58 -2 -16 3 -50 9 -75 9 -33 9 -52
1 -69 -8 -19 -8 -25 2 -29 9 -3 10 -8 2 -17 -14 -16 -30 -268 -19 -308 4 -18
11 -42 14 -53 4 -12 1 -33 -6 -45 -7 -13 -16 -49 -20 -79 -10 -68 -13 -82 -20
-95 -4 -5 -9 -27 -13 -47 -4 -21 -11 -38 -16 -38 -29 0 -18 -84 15 -116 22
-22 21 -140 -1 -162 -16 -15 -20 -13 -61 33 -25 28 -43 43 -40 34 4 -13 1 -15
-14 -12 -10 3 -19 9 -19 15 0 26 -111 136 -145 143 -17 4 -39 10 -50 14 -77
30 -115 38 -170 33 -44 -3 -64 0 -72 9 -10 12 5 13 85 8 53 -4 99 -5 101 -3 2
2 -5 4 -17 4 -11 0 -23 4 -26 9 -3 4 -27 14 -53 21 -27 7 -52 17 -57 21 -6 5
-17 9 -25 9 -13 -1 -13 -3 2 -14 26 -20 1 -26 -64 -14 -67 12 -81 22 -17 13
44 -7 47 -6 45 15 -1 19 -6 21 -34 17 -19 -3 -31 -2 -28 3 3 4 -2 10 -10 14
-8 3 -17 1 -20 -4 -7 -11 -67 6 -80 23 -5 8 -35 19 -65 26 -30 7 -70 18 -88
24 -27 9 -35 8 -49 -6 -21 -21 -9 -35 17 -19 29 18 33 15 9 -9 l-21 -21 -37
26 c-23 17 -51 26 -74 26 -29 0 -37 4 -36 18 0 10 3 12 6 5 2 -7 13 -13 23
-13 13 0 17 5 13 20 -3 11 -14 20 -24 20 -12 0 -19 7 -19 19 0 10 -7 21 -15
25 -9 3 -15 0 -15 -9 0 -8 -4 -15 -10 -15 -5 0 -10 7 -10 15 0 11 -11 15 -37
15 -21 1 -63 7 -93 14 -48 11 -52 13 -30 20 23 7 21 9 -19 18 l-43 10 28 15
c43 22 130 13 195 -21 30 -16 70 -36 89 -46 19 -10 51 -21 71 -24 l36 -6 12
127 c6 71 10 141 8 156 -3 15 4 45 15 65 15 29 18 48 13 87 -13 101 -16 430
-5 480 15 69 17 119 5 127 -5 4 -1 8 10 8 14 0 16 3 7 8 -10 7 -8 15 9 36 31
39 35 94 11 142 -24 47 -31 121 -37 394 -2 107 -8 222 -14 255 -10 65 -8 267
4 327 7 35 5 38 -36 67 -23 17 -45 31 -49 31 -14 0 -30 -53 -30 -101 0 -27 -7
-63 -15 -80 -9 -16 -14 -33 -11 -38 3 -4 -1 -16 -8 -26 -13 -17 -14 -17 -31 8
-13 21 -17 54 -19 167 -3 124 -5 142 -22 155 -31 24 -317 163 -425 206 -206
81 -484 152 -729 184 -119 16 -492 28 -590 19z m-432 -187 c6 -7 14 -42 18
-78 9 -87 -3 -109 -56 -109 -29 0 -40 4 -40 15 0 8 -4 15 -10 15 -17 0 -11 59
10 102 11 23 20 48 20 55 0 17 44 17 58 0z m699 -31 c-4 -10 -1 -13 8 -9 8 3
12 10 8 16 -3 6 -1 7 5 3 7 -4 12 -18 12 -31 0 -23 -1 -23 -30 -9 -27 14 -33
44 -8 44 6 0 8 -7 5 -14z m1261 -113 c-3 -45 3 -63 20 -63 13 0 24 -13 34 -37
23 -57 61 -174 64 -197 2 -12 8 -50 13 -86 5 -36 13 -126 16 -200 3 -74 8
-152 11 -173 21 -136 23 -364 4 -397 -15 -27 -18 -35 -27 -80 -4 -25 -10 -30
-34 -30 -16 0 -29 -6 -30 -12 0 -10 -2 -10 -6 0 -2 6 -16 12 -29 12 -27 0 -32
17 -8 34 14 11 14 19 3 69 -8 31 -17 57 -22 57 -5 0 -6 9 -2 19 5 15 2 18 -13
14 -16 -4 -19 2 -20 49 -1 29 -5 67 -7 83 -3 17 -8 57 -10 90 -3 33 -9 61 -14
63 -4 1 -6 14 -3 27 2 14 -1 31 -7 39 -10 11 -8 17 6 25 17 9 17 10 1 16 -10
4 -18 16 -18 26 0 14 -7 19 -25 19 -14 0 -25 -4 -25 -10 0 -5 8 -10 18 -10 9
0 -1 -9 -23 -19 -46 -21 -60 -17 -28 8 l21 18 -26 10 -27 11 29 1 28 1 -21 18
-22 17 20 125 c12 69 26 145 31 170 12 48 88 213 102 218 4 2 8 24 8 48 0 24
4 44 10 44 5 0 9 -8 8 -17z m-1291 -35 c-3 -8 -6 -5 -6 6 -1 11 2 17 5 13 3
-3 4 -12 1 -19z m53 -29 c0 -4 -8 -6 -17 -2 -10 3 -15 3 -11 -1 3 -4 13 -9 22
-10 21 -3 67 -47 60 -57 -3 -5 0 -9 6 -9 6 0 28 -11 48 -25 20 -14 43 -25 52
-25 8 1 -2 10 -22 21 -21 11 -38 21 -38 24 0 6 32 -6 48 -18 6 -5 32 -10 56
-11 47 -1 77 -16 33 -16 -15 0 -27 -5 -27 -11 0 -6 -7 -8 -17 -5 -16 6 -16 6
0 -12 9 -10 17 -22 17 -26 0 -10 -43 4 -52 18 -4 6 -8 8 -8 4 0 -4 -19 2 -42
12 -24 11 -55 20 -69 20 -14 0 -34 9 -44 20 -10 11 -24 20 -32 20 -8 0 -11 5
-7 11 4 7 0 9 -14 5 -12 -4 -23 -2 -28 5 -4 7 -3 9 3 6 6 -4 16 -1 21 6 9 10
4 12 -21 9 -28 -3 -33 0 -33 17 0 16 5 19 24 14 15 -3 22 -1 20 7 -5 22 19 22
25 0 3 -11 11 -20 18 -20 10 0 10 3 2 11 -15 15 -5 39 13 32 8 -3 14 -9 14
-14z m-382 -24 c7 -7 -17 -6 -45 1 -13 4 -23 10 -23 14 0 8 58 -4 68 -15z m77
-23 c-3 -3 -11 0 -18 7 -9 10 -8 11 6 5 10 -3 15 -9 12 -12z m505 -42 c8 -5
11 -12 7 -16 -4 -4 -15 0 -24 9 -18 18 -8 23 17 7z m100 -25 c7 -8 19 -15 26
-15 8 0 14 -9 14 -20 0 -21 24 -28 35 -10 8 14 145 -58 145 -76 0 -17 17 -19
22 -2 3 9 9 8 22 -5 10 -9 23 -17 30 -17 6 0 18 -9 26 -20 8 -11 19 -20 26
-20 12 0 74 -29 74 -35 0 -8 -52 3 -58 12 -4 5 -14 12 -22 16 -8 4 -22 11 -30
16 -25 14 -85 31 -113 31 -25 0 -31 9 -29 40 0 3 -16 6 -36 7 -21 1 -42 9 -51
20 -13 16 -13 17 -8 1 9 -25 1 -22 -29 7 -14 14 -29 25 -34 25 -5 0 -18 14
-30 30 -16 23 -18 30 -7 30 8 0 20 -7 27 -15z m-204 -46 c3 -5 12 -9 20 -9 8
0 25 -9 37 -21 17 -15 18 -19 4 -14 -13 6 -16 3 -11 -9 7 -19 16 -20 33 -3 11
10 13 9 8 -5 -4 -10 -3 -17 1 -16 18 3 93 -16 109 -27 15 -11 11 -12 -24 -5
-25 4 -40 3 -37 -2 3 -5 -6 -6 -20 -2 -39 10 -32 -15 16 -53 36 -30 38 -33 17
-33 -13 0 -33 7 -43 15 -11 8 -16 15 -11 15 5 0 -1 8 -15 17 -13 10 -41 16
-64 16 -38 -1 -39 -1 -11 7 17 4 24 8 17 9 -7 0 -11 5 -8 9 5 8 -12 18 -107
63 -42 20 -91 59 -74 59 16 0 115 -54 111 -61 -4 -7 74 -24 81 -17 1 1 -1 13
-6 26 -5 14 -16 22 -31 21 -17 -1 -18 -2 -5 -6 9 -2 17 -12 17 -20 0 -14 -3
-14 -20 2 -11 10 -18 20 -15 23 3 3 -2 13 -10 22 -14 16 -14 17 10 12 14 -2
28 -8 31 -13z m-251 -37 c-9 -9 -35 8 -35 24 0 16 2 16 20 -1 11 -10 18 -20
15 -23z m125 -13 c10 -6 -4 -8 -37 -7 -51 3 -67 11 -40 21 14 6 56 -2 77 -14z
m-517 -24 c-3 -9 -8 -14 -10 -11 -3 3 -2 9 2 15 9 16 15 13 8 -4z m387 -9 c0
-2 -7 -7 -16 -10 -8 -3 -12 -2 -9 4 6 10 25 14 25 6z m185 -26 c3 -6 -1 -7 -9
-4 -18 7 -21 14 -7 14 6 0 13 -4 16 -10z m-50 -10 c7 -12 -2 -12 -30 0 -19 8
-19 9 2 9 12 1 25 -3 28 -9z m-65 -10 c-20 -13 -53 -13 -45 0 3 6 18 10 33 10
21 0 24 -2 12 -10z m600 -2 c37 2 111 -19 104 -30 -3 -5 -12 -7 -19 -4 -7 2
-30 0 -50 -7 -27 -8 -38 -8 -44 1 -4 6 -32 13 -63 14 l-57 2 27 18 c18 12 35
16 52 12 14 -4 36 -7 50 -6z m-364 -43 c20 -14 32 -25 27 -25 -17 0 -81 29
-88 40 -12 19 24 10 61 -15z m-310 -30 c-8 -8 -21 -15 -28 -14 -10 0 -10 2 0
6 6 2 10 9 6 14 -3 5 4 9 16 9 19 0 20 -2 6 -15z m1086 -36 c5 -3 8 -10 7 -15
-4 -22 2 -44 17 -58 14 -15 13 -16 -15 -16 -21 0 -35 8 -50 29 -26 36 -27 61
-3 61 14 0 15 2 2 10 -13 9 -13 11 0 20 10 6 17 4 24 -8 5 -9 13 -20 18 -23z
m-732 21 c24 -8 24 -8 -7 -9 -17 -1 -35 4 -38 9 -7 11 9 11 45 0z m-55 -20
c13 0 16 -3 9 -10 -12 -12 -74 -2 -74 12 0 6 10 8 23 4 12 -3 31 -6 42 -6z
m-245 -4 c0 -2 -7 -7 -16 -10 -8 -3 -12 -2 -9 4 6 10 25 14 25 6z m735 -16 c3
-5 2 -10 -4 -10 -5 0 -13 5 -16 10 -3 6 -2 10 4 10 5 0 13 -4 16 -10z m-605
-10 c0 -5 -9 -10 -21 -10 -11 0 -17 5 -14 10 3 6 13 10 21 10 8 0 14 -4 14
-10z m-865 -50 c-21 -21 -32 -27 -39 -19 -13 12 26 49 52 49 11 0 8 -8 -13
-30z m1739 -16 c22 -21 20 -24 -11 -24 -22 0 -25 2 -13 10 13 9 13 11 0 20 -9
6 -10 10 -3 10 6 0 19 -7 27 -16z m-319 -4 c3 -6 -4 -10 -17 -10 -18 0 -20 2
-8 10 19 12 18 12 25 0z m59 -19 c8 -12 -53 -33 -67 -24 -7 4 1 12 18 19 37
16 42 16 49 5z m-239 -21 c-10 -11 -20 -18 -23 -16 -5 6 21 35 32 36 5 0 1 -9
-9 -20z m415 11 c0 -5 -6 -11 -12 -14 -18 -6 -39 3 -32 14 7 12 44 12 44 0z
m110 -26 c11 -13 10 -14 -4 -9 -9 3 -16 10 -16 15 0 13 6 11 20 -6z m-76 -10
c16 -12 17 -15 4 -15 -8 0 -21 7 -28 15 -16 19 -1 19 24 0z m-256 -11 c12 -8
22 -20 22 -26 0 -15 -49 -78 -61 -78 -11 0 8 41 23 51 6 4 8 14 6 24 -3 15 -6
15 -31 -5 -22 -18 -31 -20 -40 -11 -7 7 -7 11 -2 9 6 -2 10 0 10 3 0 9 36 49
44 49 4 0 17 -7 29 -16z m-144 -30 c10 -27 7 -46 -11 -60 -10 -7 -21 -14 -24
-14 -4 0 -4 68 0 88 3 9 30 -1 35 -14z m36 -11 c0 -5 -5 -15 -10 -23 -8 -12
-10 -11 -10 8 0 12 5 22 10 22 6 0 10 -3 10 -7z m142 -44 c-37 -36 -35 -50 4
-25 35 24 42 13 7 -11 -48 -34 -50 -34 -48 -3 2 33 30 70 53 70 11 0 5 -10
-16 -31z m-1232 0 c0 -6 -4 -7 -10 -4 -5 3 -10 11 -10 16 0 6 5 7 10 4 6 -3
10 -11 10 -16z m1119 -25 c-6 -8 -16 -11 -22 -7 -6 4 -8 0 -4 -10 3 -9 2 -19
-2 -22 -8 -4 -21 26 -21 52 0 15 32 22 48 10 9 -7 9 -13 1 -23z m237 -21 c-10
-10 -19 5 -10 18 6 11 8 11 12 0 2 -7 1 -15 -2 -18z m131 9 c15 -10 -5 -53
-27 -59 -10 -3 -8 1 4 11 29 24 10 33 -25 12 -39 -23 -46 -16 -15 17 26 28 42
32 63 19z m-413 -27 c2 -7 0 -28 -6 -47 -6 -18 -13 -39 -15 -47 -6 -24 -11 -8
-16 50 -5 48 -3 55 13 56 10 1 21 -4 24 -12z m110 -64 c-6 -6 -11 1 -18 29
l-7 25 15 -25 c8 -14 12 -27 10 -29z m52 -5 c-16 -38 -42 -51 -31 -15 7 20 37
58 43 53 2 -1 -4 -18 -12 -38z m444 23 c0 -18 -20 -18 -29 0 -9 16 -8 18 9 14
11 -3 20 -9 20 -14z m-310 -3 c0 -8 -12 -28 -26 -45 -25 -30 -25 -31 -5 -31
21 0 28 -14 12 -24 -5 -3 -11 -14 -14 -25 -6 -25 20 -17 28 9 7 23 52 53 66
44 8 -4 7 -10 0 -17 -6 -6 -11 -18 -11 -26 0 -7 -12 -38 -26 -68 -28 -57 -26
-77 4 -50 22 20 53 24 34 5 -31 -31 2 -38 39 -9 13 10 30 16 37 14 6 -3 12 0
12 6 0 6 7 8 15 5 8 -4 15 -1 15 5 0 6 6 11 14 11 19 0 18 -51 -2 -72 -8 -10
-27 -18 -41 -18 -14 0 -34 -7 -43 -14 -19 -14 -25 -32 -8 -21 9 6 15 -18 10
-40 -1 -5 -4 -25 -5 -44 -2 -22 -11 -40 -26 -52 -18 -14 -20 -19 -8 -19 9 0
22 7 29 15 15 18 29 11 27 -15 -1 -16 -8 -19 -39 -18 -21 1 -38 5 -38 9 0 14
-31 19 -49 7 -24 -14 -53 -4 -45 17 3 8 12 15 20 15 8 0 15 6 16 13 0 6 2 17
2 22 1 6 5 16 9 23 5 7 3 12 -7 12 -19 0 -25 21 -12 42 8 13 6 22 -7 36 -19
21 -23 72 -6 89 6 6 8 16 5 22 -5 7 -16 0 -32 -17 -15 -16 -22 -20 -18 -9 5
13 1 17 -15 17 -41 0 -52 81 -18 133 17 26 45 39 31 15 -4 -7 5 0 20 15 14 16
24 33 21 38 -4 5 3 9 14 9 12 0 21 -6 21 -14z m119 -15 c10 -7 8 -12 -10 -25
-22 -15 -59 -22 -59 -11 0 3 6 14 12 25 14 21 34 25 57 11z m177 -53 c-9 -5
-16 -22 -16 -38 0 -17 -4 -30 -10 -30 -13 0 -13 41 0 75 9 23 13 25 26 14 14
-11 14 -13 0 -21z m-146 -88 c0 -3 -6 -14 -13 -24 -10 -14 -22 -17 -53 -12
-21 3 -41 5 -43 6 -2 0 2 7 10 16 7 9 22 14 36 11 13 -2 23 -1 23 4 0 4 9 7
20 6 11 -1 20 -4 20 -7z m173 -14 c3 -8 0 -17 -8 -19 -7 -3 -15 3 -18 14 -6
22 18 27 26 5z m-148 -147 c-5 -16 -4 -19 5 -14 9 5 11 3 6 -6 -3 -8 -9 -22
-12 -31 -6 -18 -25 -24 -37 -12 -6 6 31 84 40 84 2 0 1 -10 -2 -21z m65 -47
c0 -11 -40 -33 -50 -27 -17 10 2 35 26 35 13 0 24 -3 24 -8z m-15 -52 c-3 -5
-12 -10 -18 -10 -7 0 -6 4 3 10 19 12 23 12 15 0z m-38 -102 c-3 -8 -6 -5 -6
6 -1 11 2 17 5 13 3 -3 4 -12 1 -19z m-110 6 c-3 -3 -12 -4 -19 -1 -8 3 -5 6
6 6 11 1 17 -2 13 -5z m-162 -53 c-8 -13 -35 -15 -35 -2 0 5 8 11 18 13 21 5
26 2 17 -11z m45 -1 c0 -5 -4 -10 -10 -10 -5 0 -10 5 -10 10 0 6 5 10 10 10 6
0 10 -4 10 -10z m217 -12 c-4 -24 -22 -35 -32 -19 -3 6 -1 11 6 11 8 0 8 4 -1
15 -10 13 -9 15 9 15 16 0 20 -5 18 -22z m-393 -67 c3 -5 -1 -12 -10 -15 -8
-3 -13 -10 -9 -15 6 -10 -13 -26 -21 -18 -2 2 0 16 5 31 11 26 25 34 35 17z
m776 -11 c0 -5 -4 -10 -10 -10 -5 0 -10 5 -10 10 0 6 5 10 10 10 6 0 10 -4 10
-10z m-765 -70 c3 -5 1 -10 -4 -10 -6 0 -11 5 -11 10 0 6 2 10 4 10 3 0 8 -4
11 -10z m0 -29 c7 -12 -12 -24 -25 -16 -11 7 -4 25 10 25 5 0 11 -4 15 -9z
m95 -21 c0 -5 -4 -10 -10 -10 -5 0 -10 5 -10 10 0 6 5 10 10 10 6 0 10 -4 10
-10z m-120 -70 c0 -5 -5 -10 -11 -10 -5 0 -7 5 -4 10 3 6 8 10 11 10 2 0 4 -4
4 -10z m-1520 -185 c-7 -8 -17 -15 -22 -15 -6 0 -5 7 2 15 7 8 17 15 22 15 6
0 5 -7 -2 -15z m1955 -69 c-10 -15 -20 -24 -23 -21 -3 3 0 11 6 17 7 7 12 21
12 32 0 14 3 17 11 9 8 -8 6 -18 -6 -37z m325 24 c0 -5 -2 -10 -4 -10 -3 0 -8
5 -11 10 -3 6 -1 10 4 10 6 0 11 -4 11 -10z m-2071 -87 c19 -5 36 -13 38 -20
6 -16 -69 -8 -107 12 -37 19 -31 37 8 25 15 -5 42 -13 61 -17z m1722 -14 c-25
-20 -51 -25 -51 -10 0 5 12 18 28 29 36 27 58 9 23 -19z m-1841 -50 c0 -7 10
-9 28 -5 20 5 23 4 12 -4 -8 -5 -12 -10 -7 -11 4 -1 10 -2 15 -3 4 -1 13 -5
20 -9 7 -5 28 -3 47 3 28 9 41 9 65 -4 17 -8 38 -12 46 -9 8 3 26 -4 39 -17
13 -12 28 -19 34 -16 31 20 65 -40 36 -64 -10 -8 -17 -6 -28 10 -15 21 -15 21
-35 -7 -18 -25 -22 -26 -47 -15 -22 10 -29 10 -41 -3 -9 -8 -20 -15 -25 -15
-24 0 -106 27 -121 40 -10 8 -27 23 -38 33 -12 10 -25 15 -30 12 -14 -8 -12
22 2 62 12 32 28 45 28 22z m1239 -19 c-13 -16 -25 -28 -27 -25 -7 7 27 55 39
55 5 0 0 -13 -12 -30z m163 -23 c4 -20 1 -23 -24 -19 -15 2 -31 8 -34 13 -3 5
3 6 12 2 13 -5 16 -3 11 10 -5 12 -1 17 12 17 12 0 20 -9 23 -23z m-142 -8 c0
-6 -4 -7 -10 -4 -5 3 -10 11 -10 16 0 6 5 7 10 4 6 -3 10 -11 10 -16z m40 11
c0 -5 -4 -10 -10 -10 -5 0 -10 5 -10 10 0 6 5 10 10 10 6 0 10 -4 10 -10z
m-1360 -49 c0 -5 3 -16 6 -25 3 -9 2 -16 -4 -16 -5 0 -12 11 -14 25 -3 14 -1
25 3 25 5 0 9 -4 9 -9z m1456 -11 c17 0 7 -27 -13 -35 -25 -9 -37 10 -21 34 7
12 14 17 16 11 2 -5 10 -10 18 -10z m-1476 -24 c0 -8 5 -16 11 -18 6 -2 13
-15 14 -28 5 -44 23 -79 50 -96 18 -11 25 -24 22 -36 -4 -12 0 -18 11 -18 11
0 4 -9 -17 -22 -29 -19 -31 -23 -15 -28 17 -6 17 -7 -1 -18 -11 -6 -14 -12 -7
-12 17 0 15 -39 -3 -46 -8 -4 -15 -11 -15 -16 0 -14 52 0 66 18 6 7 18 14 27
14 9 0 14 7 12 18 -4 26 13 52 30 46 8 -4 15 -1 15 5 0 6 -4 11 -10 11 -5 0
-10 9 -10 20 0 21 19 28 21 8 0 -10 2 -10 6 0 2 6 11 12 19 12 8 0 14 7 14 15
0 11 -12 15 -51 15 -44 0 -81 13 -138 47 -2 1 0 14 3 29 7 26 8 26 64 19 100
-12 381 -10 394 3 18 18 51 15 45 -3 -4 -8 -2 -17 4 -21 6 -4 5 -12 -3 -22
-11 -13 -10 -15 8 -10 14 4 25 -1 33 -14 14 -23 -5 -53 -72 -113 -25 -21 -44
-42 -42 -45 2 -3 -13 -15 -33 -25 -52 -27 -83 -60 -69 -74 8 -8 4 -11 -15 -11
-14 0 -31 -7 -38 -15 -7 -8 -22 -15 -34 -15 -18 0 -19 2 -6 11 12 9 11 10 -5
4 -11 -4 -46 -9 -78 -12 -44 -5 -61 -2 -69 8 -7 11 -11 11 -15 2 -7 -18 -24
-16 -17 2 4 10 0 15 -15 15 -24 0 -27 10 -8 29 10 10 6 12 -18 10 -55 -4 -64
-1 -58 22 3 11 17 25 32 32 l26 10 -35 7 c-35 7 -35 7 -10 18 18 8 20 11 8 11
-20 1 -25 31 -6 31 7 0 3 7 -8 15 -21 14 -34 71 -36 148 -1 15 -4 27 -8 27 -5
0 -3 11 3 25 13 27 27 33 27 11z m1240 -36 c0 -5 -7 -10 -16 -10 -8 0 -12 5
-9 10 3 6 10 10 16 10 5 0 9 -4 9 -10z m710 0 c11 -7 3 -10 -28 -10 -26 0 -41
4 -37 10 8 13 45 13 65 0z m-929 -27 c13 -16 12 -17 -3 -4 -17 13 -22 21 -14
21 2 0 10 -8 17 -17z m404 7 c3 -5 -1 -10 -9 -10 -9 0 -16 5 -16 10 0 6 4 10
9 10 6 0 13 -4 16 -10z m-475 -34 c0 -3 -4 -8 -10 -11 -5 -3 -10 -1 -10 4 0 6
5 11 10 11 6 0 10 -2 10 -4z m485 -16 c3 -5 1 -10 -4 -10 -6 0 -11 5 -11 10 0
6 2 10 4 10 3 0 8 -4 11 -10z m646 -50 c28 0 48 -4 45 -8 -2 -4 -38 -5 -78 -1
-40 4 -78 8 -84 8 -7 1 -14 10 -17 20 -5 19 -4 19 40 0 25 -10 67 -19 94 -19z
m-161 20 c0 -5 -4 -10 -9 -10 -6 0 -13 5 -16 10 -3 6 1 10 9 10 9 0 16 -4 16
-10z m-1775 -40 c3 -5 -1 -10 -9 -10 -9 0 -16 5 -16 10 0 6 4 10 9 10 6 0 13
-4 16 -10z m2057 -2 c-9 -9 -15 -9 -24 0 -9 9 -7 12 12 12 19 0 21 -3 12 -12z
m-2532 -8 c0 -5 -10 -10 -22 -9 -22 0 -22 1 -3 9 11 5 21 9 23 9 1 1 2 -3 2
-9z m1785 1 c-3 -5 -1 -12 5 -16 12 -8 13 -25 1 -25 -12 0 -23 29 -15 41 3 5
7 9 10 9 3 0 3 -4 -1 -9z m-368 -7 c-3 -3 -12 -4 -19 -1 -8 3 -5 6 6 6 11 1
17 -2 13 -5z m333 -59 c7 -9 8 -15 2 -15 -5 0 -12 7 -16 15 -3 8 -4 15 -2 15
2 0 9 -7 16 -15z m65 5 c3 -5 -1 -10 -10 -10 -9 0 -13 5 -10 10 3 6 8 10 10
10 2 0 7 -4 10 -10z m159 -6 c21 -8 21 -30 0 -38 -10 -4 -14 -1 -11 6 2 7 -3
18 -12 25 -17 13 -4 17 23 7z m-175 -35 c1 8 4 11 8 8 3 -4 12 -2 20 4 18 15
17 1 -1 -17 -22 -22 -46 -17 -45 9 0 21 1 21 9 2 5 -12 9 -14 9 -6z m-239 -19
c0 -5 -5 -10 -11 -10 -5 0 -7 5 -4 10 3 6 8 10 11 10 2 0 4 -4 4 -10z m1194
-11 c-8 -14 -24 -10 -24 6 0 9 6 12 15 9 8 -4 12 -10 9 -15z m436 -159 c13 -9
13 -10 0 -9 -8 0 -24 4 -35 9 l-20 9 20 0 c11 0 27 -4 35 -9z m120 -51 c0 -5
-26 -8 -57 -8 -44 1 -50 3 -28 8 45 9 85 9 85 0z m-3432 -29 c-1 -34 -6 -37
-23 -13 -9 12 -9 20 -1 29 18 21 25 16 24 -16z m-58 -70 c0 -5 -2 -10 -4 -10
-3 0 -8 5 -11 10 -3 6 -1 10 4 10 6 0 11 -4 11 -10z m-245 -30 c23 -13 50 -20
66 -18 16 3 26 1 23 -3 -2 -4 8 -16 22 -26 23 -17 25 -22 14 -42 -13 -25 -4
-44 10 -21 8 12 10 10 10 -7 0 -12 5 -25 10 -28 8 -5 7 -11 -1 -21 -9 -11 -8
-18 2 -31 10 -11 10 -14 2 -9 -9 5 -13 0 -13 -13 0 -22 -14 -28 -25 -11 -4 6
-13 5 -25 -2 -10 -7 -16 -16 -14 -20 3 -5 -8 -13 -24 -19 -29 -10 -82 -69 -62
-69 6 0 10 -10 8 -22 -3 -19 3 -23 37 -29 22 -4 45 -4 52 -2 7 3 13 3 13 1 0
-10 -39 -78 -70 -123 -54 -78 -168 -311 -186 -379 -9 -33 -24 -69 -35 -79 -17
-16 -46 -20 -59 -7 -3 3 -71 38 -152 78 -160 79 -173 92 -148 151 9 23 9 33
-1 50 -11 16 -11 27 -1 54 7 18 12 43 12 56 0 27 23 72 45 91 10 8 21 25 26
38 11 28 67 53 123 55 34 2 44 7 61 34 20 33 55 51 74 39 5 -4 22 -31 37 -61
27 -52 54 -70 69 -46 12 20 13 131 1 139 -7 4 -15 14 -18 23 -6 15 -82 59
-102 59 -4 0 -19 9 -33 20 -14 11 -34 20 -44 20 -13 0 -19 8 -20 23 -2 34 2
52 12 55 5 2 9 11 9 20 0 10 12 31 28 47 15 16 26 33 25 37 -2 5 0 8 5 9 69 7
98 11 102 16 11 11 99 -7 135 -27z m3652 -27 c-11 -3 -16 -11 -13 -19 5 -14
-5 -19 -17 -8 -12 12 6 34 27 33 18 -1 18 -2 3 -6z m48 -13 c-3 -5 -10 -10
-16 -10 -5 0 -9 5 -9 10 0 6 7 10 16 10 8 0 12 -4 9 -10z m55 -10 c0 -5 -4
-10 -9 -10 -6 0 -13 5 -16 10 -3 6 1 10 9 10 9 0 16 -4 16 -10z m176 -12 c4
-12 18 -31 32 -42 l25 -20 -21 -16 -20 -17 20 -14 c11 -8 37 -29 57 -48 20
-19 28 -28 17 -20 -20 15 -53 35 -76 45 -8 4 -17 10 -20 14 -9 12 -181 90
-198 90 -9 1 -30 7 -47 15 l-30 15 40 -5 c22 -3 52 -8 68 -11 16 -3 27 -1 27
5 0 7 22 11 56 11 34 0 53 4 49 10 -3 6 -2 10 4 10 5 0 13 -10 17 -22z m-509
-124 c-3 -3 -12 -4 -19 -1 -8 3 -5 6 6 6 11 1 17 -2 13 -5z m-79 -11 c-10 -2
-26 -2 -35 0 -10 3 -2 5 17 5 19 0 27 -2 18 -5z m-63 -21 c-3 -3 -11 0 -18 7
-9 10 -8 11 6 5 10 -3 15 -9 12 -12z m-120 -2 c3 -5 -1 -10 -10 -10 -9 0 -13
5 -10 10 3 6 8 10 10 10 2 0 7 -4 10 -10z m-133 -69 c10 -12 23 -21 28 -21 6
0 10 -6 10 -14 0 -9 -7 -12 -20 -9 -11 3 -20 0 -20 -6 0 -6 -6 -11 -14 -11 -8
0 -16 -7 -20 -15 -4 -10 -19 -14 -53 -12 -46 2 -48 4 -50 32 -6 71 89 109 139
56z m797 -345 c-11 -10 -49 -16 -49 -8 0 13 44 31 49 20 1 -5 1 -11 0 -12z
m-722 -241 c-4 -8 -11 -15 -17 -15 -6 0 -6 7 2 20 14 22 24 19 15 -5z m-3356
-312 c13 -35 11 -59 -6 -77 -8 -8 -19 -26 -25 -41 -12 -33 -30 -24 -30 16 0
24 -4 29 -25 29 -14 0 -25 -4 -25 -10 0 -19 -21 -10 -29 13 -13 32 -77 52
-107 32 -24 -15 -38 -70 -29 -108 11 -42 -83 -103 -98 -64 -8 22 44 211 62
225 11 9 35 12 81 8 36 -3 83 -2 104 2 68 13 116 3 127 -25z m-189 -113 c6 0
9 -2 6 -5 -12 -12 -37 7 -30 23 6 16 7 15 10 0 2 -10 8 -18 14 -18z m148 -85
c18 -47 -30 -210 -65 -222 -6 -2 -9 31 -7 81 l3 84 -48 4 c-59 5 -81 -6 -75
-38 2 -13 0 -24 -6 -24 -6 0 -13 19 -17 42 -6 36 -4 43 16 59 28 21 86 36 147
38 37 1 44 -2 52 -24z m-320 -145 c0 -5 7 -10 15 -10 13 0 40 -68 30 -78 -2
-2 -17 -1 -33 3 -25 5 -31 12 -35 43 -2 20 -2 40 0 45 6 10 23 9 23 -3z m220
0 c8 -5 11 -12 8 -16 -10 -9 -38 3 -38 16 0 12 10 13 30 0z m-93 -22 c-3 -8
-6 -5 -6 6 -1 11 2 17 5 13 3 -3 4 -12 1 -19z m-90 -100 c-3 -8 -6 -5 -6 6 -1
11 2 17 5 13 3 -3 4 -12 1 -19z m95 -30 c-7 -7 -12 -8 -12 -2 0 14 12 26 19
19 2 -3 -1 -11 -7 -17z m61 -62 c39 -9 37 -46 -4 -70 -32 -19 -32 -19 -50 5
-10 13 -19 31 -19 40 0 19 19 39 34 34 6 -2 23 -6 39 -9z m947 -506 c0 -5 -4
-10 -10 -10 -5 0 -10 5 -10 10 0 6 5 10 10 10 6 0 10 -4 10 -10z m10 -57 c-1
-20 -28 -55 -34 -45 -4 6 -1 20 6 32 13 20 28 27 28 13z m-223 -91 c-8 -2 -20
-20 -25 -40 -9 -32 -10 -33 -11 -10 -1 14 -7 28 -13 31 -9 3 -4 11 12 25 20
16 28 18 39 9 12 -10 12 -12 -2 -15z"/>
<path d="M3183 5717 c3 -15 25 -25 57 -26 l25 -1 -25 13 c-45 23 -60 27 -57
14z"/>
<path d="M3567 5619 c7 -7 15 -10 18 -7 3 3 -2 9 -12 12 -14 6 -15 5 -6 -5z"/>
<path d="M3698 5483 c7 -3 16 -2 19 1 4 3 -2 6 -13 5 -11 0 -14 -3 -6 -6z"/>
<path d="M3840 4858 c0 -12 1 -19 3 -17 1 2 9 12 16 22 12 14 11 17 -3 17 -10
0 -16 -8 -16 -22z"/>
<path d="M4030 4745 c-7 -9 -11 -18 -8 -20 3 -3 11 1 18 10 7 9 11 18 8 20 -3
3 -11 -1 -18 -10z"/>
<path d="M3990 4695 c-6 -8 -10 -22 -8 -32 3 -14 8 -11 21 15 18 32 9 44 -13
17z"/>
<path d="M4000 4600 c-14 -11 -20 -20 -15 -19 13 0 50 28 44 33 -2 3 -15 -4
-29 -14z"/>
<path d="M3925 4560 c-8 -13 15 -13 35 0 12 8 11 10 -7 10 -12 0 -25 -4 -28
-10z"/>
<path d="M2410 3430 c0 -5 5 -10 11 -10 5 0 7 5 4 10 -3 6 -8 10 -11 10 -2 0
-4 -4 -4 -10z"/>
<path d="M2386 3402 c-15 -3 -16 -6 -5 -13 12 -8 12 -11 -1 -19 -13 -8 -13
-10 2 -10 18 0 44 36 31 43 -5 2 -17 2 -27 -1z"/>
<path d="M3075 5210 c-3 -11 -11 -20 -16 -20 -5 0 -9 -5 -9 -11 0 -5 6 -7 13
-4 6 4 4 0 -5 -8 -16 -13 -15 -27 3 -27 8 0 49 67 49 81 0 18 -29 9 -35 -11z"/>
<path d="M2987 5154 c-11 -35 -12 -43 -2 -33 13 14 31 79 22 79 -3 0 -11 -21
-20 -46z"/>
<path d="M3126 5164 c-5 -14 -4 -15 9 -4 17 14 19 20 6 20 -5 0 -12 -7 -15
-16z"/>
<path d="M3033 5134 c3 -3 -7 -20 -23 -38 -17 -17 -30 -36 -30 -43 0 -6 -6
-13 -12 -16 -7 -2 -9 -8 -5 -13 4 -5 11 -4 15 2 4 6 29 27 55 47 58 44 82 67
69 67 -4 0 -19 -11 -32 -25 -27 -28 -52 -35 -27 -7 17 18 14 32 -6 32 -6 0 -8
-3 -4 -6z"/>
<path d="M1831 4866 c-6 -7 -12 -79 -13 -177 -3 -156 -2 -166 18 -187 l22 -24
24 41 c19 31 24 54 23 94 -1 28 2 94 7 146 5 51 6 97 1 101 -17 15 -71 19 -82
6z"/>
<path d="M731 4726 c-49 -101 -51 -104 -88 -111 -35 -5 -46 -1 -107 39 -37 26
-72 46 -76 46 -21 0 -208 -360 -196 -378 3 -5 34 -12 68 -16 40 -4 73 -14 91
-27 32 -23 47 -18 29 11 -9 14 -9 20 1 23 9 3 9 7 0 19 -7 8 -11 17 -9 19 2 2
7 33 11 69 7 79 23 131 44 147 19 15 117 17 126 3 10 -15 45 -12 45 5 0 16 34
38 44 28 3 -3 6 -1 6 6 0 18 55 62 124 98 34 18 54 33 46 34 -8 1 -4 4 10 9
27 8 20 13 -32 24 -16 4 -28 13 -28 21 0 8 -9 15 -20 15 -11 0 -20 5 -20 10 0
31 -24 -2 -69 -94z"/>
<path d="M3665 4820 c3 -5 8 -10 11 -10 2 0 4 5 4 10 0 6 -5 10 -11 10 -5 0
-7 -4 -4 -10z"/>
<path d="M1040 4810 c0 -5 5 -10 10 -10 6 0 10 5 10 10 0 6 -4 10 -10 10 -5 0
-10 -4 -10 -10z"/>
<path d="M2170 4758 c0 -5 -9 -8 -20 -8 -26 0 -55 -92 -38 -120 8 -12 16 -16
23 -10 6 5 31 13 55 19 37 8 48 7 63 -7 18 -16 18 -17 0 -23 -10 -4 -32 -8
-49 -8 -17 -1 -38 -9 -47 -19 -18 -19 -31 -101 -16 -103 5 -1 15 -2 22 -3 6
-1 17 -7 22 -13 6 -7 30 -19 55 -27 l45 -13 -47 -14 c-87 -24 -53 -43 50 -27
85 12 104 23 80 42 -10 7 -18 18 -18 25 0 8 6 9 18 3 22 -12 42 -5 42 16 0 14
2 15 10 2 10 -16 12 -15 27 14 8 15 6 27 -7 52 -14 23 -15 35 -7 43 8 8 8 11
-1 11 -7 0 -12 7 -12 15 0 8 -4 15 -9 15 -5 0 -12 13 -16 30 -9 39 -39 76 -78
94 -34 16 -147 26 -147 14z m153 -255 c24 -7 22 -23 -4 -23 -12 0 -17 -4 -13
-11 7 -13 -35 -3 -50 12 -14 13 14 41 33 33 9 -3 24 -9 34 -11z"/>
<path d="M2680 4657 c-37 -35 -54 -67 -41 -80 16 -16 13 -27 -4 -21 -8 4 -15
1 -15 -5 0 -6 15 -11 33 -11 27 -1 29 -2 14 -11 -9 -5 -21 -7 -27 -4 -11 7
-30 -26 -30 -52 0 -15 9 -18 55 -20 60 -2 93 -21 72 -42 -17 -17 7 -30 53 -29
19 0 47 -5 62 -11 20 -7 29 -7 38 4 9 10 7 14 -7 18 -14 4 -13 5 5 6 14 1 21
5 16 12 -10 17 58 0 72 -17 6 -8 16 -14 22 -14 6 0 12 -3 14 -7 5 -12 98 -45
138 -50 l35 -4 -24 20 c-14 13 -18 21 -10 21 9 1 7 6 -6 16 -11 8 -28 21 -37
29 -32 27 -183 93 -228 100 -58 9 -75 22 -54 42 9 10 24 13 40 9 14 -4 32 -2
39 4 9 8 19 8 32 1 10 -5 35 -13 56 -16 20 -3 37 -10 37 -15 0 -6 17 -10 38
-10 24 0 32 3 23 9 -9 6 -10 11 -2 15 17 11 -13 36 -42 36 -23 0 -46 15 -97
61 -29 27 -80 39 -164 39 -70 -1 -84 -4 -106 -23z m314 -207 c16 -16 -26 -11
-54 6 l-25 15 35 -6 c19 -3 39 -10 44 -15z"/>
<path d="M3722 4568 l-2 -33 13 25 c14 25 13 40 -1 40 -4 0 -9 -15 -10 -32z"/>
<path d="M2055 4471 c-6 -6 -36 -19 -68 -30 -32 -11 -70 -29 -84 -41 -14 -11
-32 -20 -39 -20 -8 0 -14 -4 -14 -10 0 -5 -6 -7 -14 -4 -7 3 -31 -2 -52 -12
-43 -18 -48 -20 -114 -23 l-45 -2 25 -17 c52 -35 68 -59 75 -108 9 -71 23 -92
78 -119 55 -28 82 -32 74 -11 -4 9 1 17 12 21 11 3 21 24 29 65 9 40 36 100
82 182 63 109 83 157 55 129z"/>
<path d="M2769 4315 c21 -19 45 -35 54 -35 9 0 19 -4 22 -10 6 -10 55 -10 55
0 0 8 -142 80 -158 80 -6 0 5 -16 27 -35z"/>
<path d="M4100 4295 c0 -30 6 -32 19 -6 8 14 7 20 -4 25 -11 4 -15 -2 -15 -19z"/>
<path d="M466 4204 c-8 -21 -8 -24 3 -24 12 0 22 28 12 35 -5 3 -12 -2 -15
-11z"/>
<path d="M433 4140 c-18 -16 -49 -32 -70 -35 -21 -3 -46 -10 -55 -16 -10 -5
-47 -9 -82 -9 l-65 0 -25 -83 c-178 -584 -176 -1251 6 -1817 39 -121 58 -163
58 -127 0 9 8 17 18 18 10 0 12 3 5 6 -28 11 -11 24 23 17 63 -12 70 12 79
246 3 85 8 171 10 190 2 19 7 98 10 175 3 77 7 169 10 205 3 36 10 164 15 285
6 121 15 249 20 285 5 36 14 128 20 205 6 77 13 156 15 175 2 19 7 60 10 90
10 93 26 160 37 160 7 0 6 5 -1 14 -8 10 -9 16 -1 21 12 7 14 25 3 25 -5 0
-22 -14 -40 -30z"/>
<path d="M3833 4135 c-11 -8 -24 -26 -27 -39 -4 -18 -11 -24 -24 -20 -14 5
-15 4 -2 -5 13 -9 13 -12 1 -20 -9 -6 -12 -21 -9 -47 6 -48 -18 -79 -54 -69
-20 5 -21 5 -5 -5 14 -9 16 -15 6 -26 -8 -10 -9 -14 0 -14 6 0 14 7 17 15 3 8
14 17 24 20 23 7 51 60 43 81 -4 11 0 15 13 12 15 -2 19 3 18 25 0 26 18 37
30 18 3 -5 14 -7 25 -4 13 3 18 13 17 34 -1 16 -5 29 -10 29 -5 0 -17 7 -26
15 -14 13 -19 13 -37 0z"/>
<path d="M3645 3990 c-3 -5 -2 -10 4 -10 5 0 13 5 16 10 3 6 2 10 -4 10 -5 0
-13 -4 -16 -10z"/>
<path d="M3295 3670 c-3 -5 -1 -10 4 -10 6 0 11 5 11 10 0 6 -2 10 -4 10 -3 0
-8 -4 -11 -10z"/>
<path d="M3295 3630 c3 -5 8 -10 11 -10 2 0 4 5 4 10 0 6 -5 10 -11 10 -5 0
-7 -4 -4 -10z"/>
<path d="M4751 3346 c11 -9 69 -15 64 -6 -3 6 -20 10 -37 10 -17 0 -29 -2 -27
-4z"/>
<path d="M4790 3310 c-13 -8 -13 -10 2 -10 9 0 20 5 23 10 8 13 -5 13 -25 0z"/>
<path d="M792 1083 c-10 -4 -9 -8 4 -18 13 -9 21 -9 30 -1 18 17 -5 31 -34 19z"/>
<path d="M1660 870 c0 -19 3 -21 12 -12 9 9 9 15 0 24 -9 9 -12 7 -12 -12z"/>
<path d="M1720 849 c0 -19 34 -52 43 -42 4 3 7 18 7 32 0 23 -1 24 -14 6 -13
-18 -13 -18 -24 1 -9 15 -11 16 -12 3z"/>
<path d="M1800 824 c0 -14 4 -23 10 -19 6 3 10 15 10 26 0 10 -4 19 -10 19 -5
0 -10 -12 -10 -26z"/>
<path d="M1888 823 c6 -2 18 -2 25 0 6 3 1 5 -13 5 -14 0 -19 -2 -12 -5z"/>
<path d="M1853 796 c-4 -7 -18 -18 -30 -25 -13 -6 -23 -19 -23 -29 0 -13 2
-14 9 -3 5 8 18 11 32 7 13 -3 19 -3 12 0 -15 7 -5 34 12 34 7 0 15 7 19 15 7
19 -20 20 -31 1z"/>
<path d="M1743 755 c-13 -5 -23 -13 -23 -18 0 -4 4 -6 9 -3 14 9 41 -4 41 -20
0 -8 5 -14 10 -14 6 0 10 7 10 15 0 8 -4 15 -9 15 -5 0 -11 8 -13 18 -2 14 -7
15 -25 7z"/>
<path d="M1675 740 c3 -5 8 -10 11 -10 2 0 4 5 4 10 0 6 -5 10 -11 10 -5 0 -7
-4 -4 -10z"/>
<path d="M1601 658 c0 -16 2 -18 6 -8 3 8 11 18 17 22 7 5 4 8 -6 8 -12 0 -18
-7 -17 -22z"/>
<path d="M1510 600 c0 -5 5 -10 10 -10 6 0 10 5 10 10 0 6 -4 10 -10 10 -5 0
-10 -4 -10 -10z"/>
</g>
</svg>
